<svg width="74" height="49" viewBox="0 0 74 49" fill="none" xmlns="http://www.w3.org/2000/svg">
<path d="M71.8106 19.864C71.3567 19.1074 66.8763 17.1721 66.8763 17.1721C67.6555 16.7697 68.1882 16.6864 68.1882 15.022C68.1882 13.2062 68.1791 12.601 66.9686 12.601H62.8619C62.8453 12.5646 62.8271 12.5268 62.8105 12.489C60.1595 6.69973 59.8039 5.23653 55.8501 3.26643C50.5465 0.629036 40.6037 0.49588 36.7059 0.49588C32.808 0.49588 22.8652 0.629036 17.5662 3.26643C13.6079 5.23351 13.7062 6.24579 10.6058 12.489C10.6058 12.5056 10.574 12.5495 10.5453 12.601H6.43409C5.23266 12.601 5.22358 13.2062 5.22358 15.022C5.22358 16.6864 5.7562 16.7697 6.53547 17.1721C6.53547 17.1721 2.20639 19.2588 1.60113 19.864C0.995879 20.4693 0.390625 24.706 0.390625 31.9691C0.390625 39.2321 0.995879 46.4952 0.995879 46.4952H2.80256C2.80256 48.6136 3.11427 48.9162 4.02215 48.9162H16.1272C17.0351 48.9162 17.3377 48.6136 17.3377 46.4952H56.074C56.074 48.6136 56.3766 48.9162 57.2845 48.9162H69.6922C70.2975 48.9162 70.6001 48.4623 70.6001 46.4952H72.4159C72.4159 46.4952 73.0211 39.0808 73.0211 31.9691C73.0211 24.8574 72.2645 20.6206 71.8106 19.864ZM16.9231 26.664C14.1673 26.9653 11.3974 27.1199 8.62511 27.1271C5.53528 27.1271 5.42937 27.3253 5.21147 25.396C5.12951 24.513 5.15542 23.6233 5.28864 22.7465L5.38397 22.285H5.83791C7.65367 22.285 9.35898 22.3622 12.5789 23.3109C14.2166 23.8024 15.757 24.5733 17.132 25.5897C17.7917 26.0679 17.943 26.5218 17.943 26.5218L16.9231 26.664ZM54.3218 37.5586L53.653 39.2321H19.7588C19.7588 39.2321 19.8178 39.1398 19.0022 37.5405C18.3969 36.3572 19.1535 35.6006 20.3504 35.1709C22.6685 34.3356 29.4428 31.9691 36.7059 31.9691C43.9689 31.9691 50.8779 34.0088 53.1234 35.1709C53.9556 35.6006 54.9891 35.9032 54.3218 37.5677V37.5586ZM15.4342 16.8998C14.9455 16.928 14.4556 16.9315 13.9665 16.9104C14.3614 16.2083 14.5808 15.426 14.9667 14.6089C16.1772 12.0366 17.5617 9.12529 20.0266 7.89814C23.5885 6.12474 30.9711 5.32581 36.7059 5.32581C42.4407 5.32581 49.8232 6.11869 53.3852 7.89814C55.8501 9.12529 57.2285 12.0381 58.4451 14.6089C58.834 15.4336 59.0503 16.2219 59.4559 16.9285C59.1532 16.9452 58.8052 16.9285 57.9745 16.8998H15.4342ZM68.049 25.39C67.7252 27.2784 68.0278 27.1271 64.7866 27.1271C62.0144 27.1199 59.2445 26.9653 56.4886 26.664C56.0574 26.5869 55.9348 25.8591 56.2798 25.5897C57.6478 24.562 59.1902 23.79 60.8328 23.3109C64.0528 22.3622 65.8655 22.2351 67.6555 22.2986C67.7758 22.3032 67.8901 22.3521 67.9764 22.4359C68.0627 22.5198 68.115 22.6325 68.1231 22.7526C68.2086 23.6334 68.1837 24.5214 68.049 25.396V25.39Z" fill="white"/>
</svg>
