<svg width="172" height="33" viewBox="0 0 172 33" fill="none" xmlns="http://www.w3.org/2000/svg">
<path d="M36.8809 3.57447C34.1277 2.31828 31.1838 1.40534 28.1061 0.885498C27.7281 1.55191 27.2865 2.44825 26.982 3.16129C23.7103 2.68148 20.4687 2.68148 17.2571 3.16129C16.9527 2.44825 16.5011 1.55191 16.1197 0.885498C13.0386 1.40534 10.0914 2.32163 7.33816 3.58112C1.78488 11.7645 0.279476 19.7447 1.03218 27.6115C4.71541 30.2938 8.2849 31.9231 11.7941 32.9894C12.6606 31.8265 13.4334 30.5903 14.0991 29.2875C12.8312 28.8177 11.6168 28.2379 10.4694 27.5649C10.7738 27.3449 11.0716 27.115 11.3593 26.8784C18.3577 30.0705 25.9617 30.0705 32.8765 26.8784C33.1676 27.115 33.4653 27.3449 33.7664 27.5649C32.6156 28.2412 31.3979 28.821 30.13 29.2909C30.7957 30.5903 31.5652 31.8298 32.4349 32.9927C35.9476 31.9264 39.5204 30.2971 43.2036 27.6115C44.0868 18.4918 41.6949 10.585 36.8809 3.57447ZM15.0525 22.7735C12.9517 22.7735 11.2288 20.8609 11.2288 18.5318C11.2288 16.2027 12.9149 14.2868 15.0525 14.2868C17.1902 14.2868 18.913 16.1994 18.8763 18.5318C18.8796 20.8609 17.1902 22.7735 15.0525 22.7735ZM29.1833 22.7735C27.0824 22.7735 25.3595 20.8609 25.3595 18.5318C25.3595 16.2027 27.0456 14.2868 29.1833 14.2868C31.3209 14.2868 33.0438 16.1994 33.007 18.5318C33.007 20.8609 31.3209 22.7735 29.1833 22.7735Z" fill="white"/>
<path d="M58.0078 9.07629H67.1404C69.3419 9.07629 71.2018 9.41948 72.7276 10.1026C74.2493 10.7856 75.3904 11.7385 76.1466 12.9581C76.9022 14.1776 77.2835 15.5737 77.2835 17.1464C77.2835 18.6858 76.8888 20.0819 76.0993 21.3314C75.3099 22.5842 74.1088 23.5738 72.4932 24.3035C70.8776 25.0332 68.8766 25.3997 66.485 25.3997H58.0078V9.07629ZM66.3912 21.2514C67.8732 21.2514 69.0142 20.8816 69.8101 20.1452C70.6065 19.4055 71.0047 18.3992 71.0047 17.1231C71.0047 15.9402 70.6497 14.9972 69.9407 14.2908C69.2317 13.5844 68.1578 13.2279 66.7223 13.2279H63.8654V21.2514H66.3912Z" fill="white"/>
<path d="M90.958 25.3799C89.6934 25.0533 88.5524 24.5802 87.5391 23.9571V20.0853C88.3052 20.675 89.3319 21.1616 90.6198 21.5447C91.9078 21.9246 93.1526 22.1145 94.3565 22.1145C94.9186 22.1145 95.3436 22.0412 95.6311 21.8946C95.9191 21.748 96.0631 21.5714 96.0631 21.3681C96.0631 21.1349 95.9861 20.9416 95.8287 20.785C95.6713 20.6284 95.3669 20.4985 94.9157 20.3885L92.1054 19.7587C90.4962 19.3856 89.3552 18.8691 88.6766 18.2061C87.9973 17.5463 87.6592 16.68 87.6592 15.6071C87.6592 14.7041 87.9536 13.9211 88.5495 13.2514C89.1413 12.5817 89.9843 12.0652 91.0781 11.702C92.1725 11.3355 93.4499 11.1522 94.9186 11.1522C96.2298 11.1522 97.4309 11.2921 98.5253 11.572C99.619 11.852 100.522 12.2084 101.242 12.6449V16.3068C100.505 15.8703 99.6622 15.5272 98.699 15.2672C97.7387 15.0107 96.7522 14.884 95.7348 14.884C94.2662 14.884 93.5339 15.1339 93.5339 15.6304C93.5339 15.8637 93.6476 16.0369 93.8749 16.1535C94.1023 16.2702 94.5204 16.3901 95.1261 16.5167L97.4676 16.9366C98.9969 17.1998 100.137 17.663 100.887 18.3227C101.636 18.9824 102.011 19.9587 102.011 21.2515C102.011 22.6676 101.392 23.7905 100.151 24.6235C98.9095 25.4565 97.1499 25.873 94.8684 25.873C93.5269 25.8697 92.2226 25.7064 90.958 25.3799Z" fill="white"/>
<path d="M107.54 24.8898C106.199 24.2367 105.185 23.3504 104.509 22.2308C103.833 21.1113 103.492 19.8518 103.492 18.4523C103.492 17.0529 103.843 15.8001 104.546 14.6972C105.248 13.5943 106.279 12.728 107.637 12.0982C108.995 11.4685 110.618 11.1553 112.508 11.1553C114.849 11.1553 116.793 11.6451 118.339 12.6247V16.893C117.794 16.5198 117.157 16.2166 116.432 15.9834C115.706 15.7501 114.93 15.6335 114.1 15.6335C112.648 15.6335 111.514 15.8967 110.694 16.4265C109.875 16.9563 109.464 17.646 109.464 18.5023C109.464 19.342 109.861 20.0284 110.658 20.5682C111.454 21.1046 112.608 21.3745 114.123 21.3745C114.903 21.3745 115.672 21.2612 116.432 21.038C117.188 20.8114 117.84 20.5349 118.385 20.2083V24.3366C116.669 25.3629 114.679 25.876 112.414 25.876C110.507 25.8694 108.881 25.5428 107.54 24.8898Z" fill="white"/>
<path d="M124.182 24.8901C122.83 24.237 121.8 23.3441 121.09 22.2078C120.381 21.0716 120.023 19.8055 120.023 18.406C120.023 17.0066 120.378 15.7571 121.09 14.6609C121.803 13.5646 122.827 12.705 124.172 12.0819C125.513 11.4588 127.116 11.1489 128.972 11.1489C130.829 11.1489 132.431 11.4588 133.773 12.0819C135.114 12.705 136.138 13.558 136.841 14.6475C137.543 15.7371 137.894 16.9866 137.894 18.4027C137.894 19.8021 137.543 21.0683 136.841 22.2045C136.138 23.3407 135.111 24.2337 133.759 24.8867C132.408 25.5399 130.812 25.8664 128.969 25.8664C127.125 25.8664 125.53 25.5432 124.182 24.8901ZM131.297 20.7518C131.866 20.1853 132.154 19.4356 132.154 18.5027C132.154 17.5697 131.869 16.8267 131.297 16.2769C130.729 15.7238 129.952 15.4472 128.969 15.4472C127.969 15.4472 127.185 15.7238 126.614 16.2769C126.045 16.83 125.761 17.5697 125.761 18.5027C125.761 19.4356 126.045 20.1853 126.614 20.7518C127.183 21.3182 127.969 21.6048 128.969 21.6048C129.952 21.6014 130.729 21.3182 131.297 20.7518Z" fill="white"/>
<path d="M151.959 12.0151V17.0531C151.363 16.6632 150.594 16.4699 149.64 16.4699C148.392 16.4699 147.429 16.8465 146.76 17.5995C146.087 18.3526 145.753 19.5254 145.753 21.1114V25.4031H140.016V11.7585H145.636V16.0968C145.947 14.5107 146.452 13.3412 147.148 12.5848C147.841 11.8318 148.737 11.4553 149.828 11.4553C150.654 11.4553 151.363 11.6419 151.959 12.0151Z" fill="white"/>
<path d="M171.02 8.60974V25.403H165.283V22.3476C164.797 23.4971 164.062 24.3735 163.072 24.9732C162.081 25.5697 160.857 25.8695 159.405 25.8695C158.107 25.8695 156.977 25.5563 156.009 24.9266C155.043 24.2968 154.297 23.4339 153.772 22.3376C153.25 21.2414 152.985 20.0019 152.985 18.6158C152.969 17.1864 153.246 15.9035 153.818 14.7673C154.387 13.6311 155.193 12.7448 156.23 12.1083C157.267 11.472 158.452 11.1521 159.78 11.1521C162.513 11.1521 164.346 12.3349 165.283 14.6973V8.60974H171.02ZM164.427 20.6583C165.012 20.0918 165.303 19.3555 165.303 18.4559C165.303 17.5862 165.018 16.8764 164.45 16.3333C163.881 15.7903 163.101 15.517 162.121 15.517C161.155 15.517 160.382 15.7936 159.803 16.3467C159.224 16.8998 158.937 17.6161 158.937 18.5025C158.937 19.3888 159.224 20.1119 159.803 20.6716C160.382 21.2314 161.145 21.5113 162.098 21.5113C163.065 21.508 163.841 21.2247 164.427 20.6583Z" fill="white"/>
<path d="M82.126 13.2112C83.7055 13.2112 84.9864 12.0655 84.9864 10.6522C84.9864 9.23892 83.7055 8.09326 82.126 8.09326C80.546 8.09326 79.2656 9.23892 79.2656 10.6522C79.2656 12.0655 80.546 13.2112 82.126 13.2112Z" fill="white"/>
<path d="M79.2656 14.9738C81.0182 15.7268 83.193 15.7601 84.9858 14.9738V25.4762H79.2656V14.9738Z" fill="white"/>
</svg>
