<svg width="43" height="69" viewBox="0 0 43 69" fill="none" xmlns="http://www.w3.org/2000/svg">
<path d="M21.5116 0.0776062C19.9079 1.88718 18.9305 4.25433 18.9305 6.85409C19.0252 12.5616 19.729 18.2623 19.7909 23.9578C19.9182 29.277 18.3145 34.2713 16.3632 39.1459C15.7128 40.4919 15.0107 41.8089 14.307 43.1293L12.2421 42.7154C10.3785 42.346 9.16716 40.545 9.54056 38.6926C9.86578 37.0729 11.3009 35.9389 12.9011 35.9389L13.6548 36.0193L11.9737 22.0627C11.4247 15.8541 8.20012 10.398 3.45608 6.85751C2.64046 6.24862 1.77494 5.69104 0.875 5.20016V54.7496H12.3832C13.2436 59.3847 15.8143 63.4383 19.4278 66.2091C20.2865 66.7974 21.0075 67.5739 21.5254 68.4804C22.0416 67.5739 22.7626 66.7974 23.6229 66.2091C27.2365 63.4314 29.8072 59.3864 30.6676 54.7496H42.1758V5.20016C41.2758 5.69104 40.4103 6.24862 39.5947 6.85751C34.8455 10.4031 31.6278 15.8541 31.0771 22.0627L29.396 36.0193L30.1496 35.9389C31.7499 35.9458 33.185 37.0712 33.5102 38.6926C33.8819 40.545 32.6705 42.3443 30.8087 42.7154L28.7438 43.1293C28.04 41.8106 27.3363 40.4936 26.6876 39.1459C24.7345 34.2747 23.1308 29.2805 23.2582 23.9578C23.3201 18.2452 24.0239 12.5496 24.1185 6.85409C24.1185 4.25433 23.1411 1.89402 21.5374 0.0776062H21.5116ZM4.3044 12.341C6.53101 14.939 8.02632 18.1733 8.46855 21.736L9.84513 33.2468C8.08139 34.1191 6.74783 35.72 6.24193 37.6578H4.29235V12.3444L4.3044 12.341ZM38.7188 12.341V37.6544H36.7693C36.2668 35.7183 34.9298 34.1174 33.1661 33.2434L34.5427 21.7326C34.9883 18.1733 36.4836 14.9356 38.7068 12.3358L38.7188 12.341ZM21.5116 35.4823C22.4357 38.4874 23.7073 41.3488 25.2886 43.9965C23.7847 44.4497 22.4769 45.3323 21.5116 46.521C20.5463 45.3323 19.2386 44.4514 17.7346 43.9948C19.316 41.342 20.5876 38.4874 21.5116 35.4823ZM4.3044 41.082H6.25398C6.86828 43.444 8.72322 45.3083 11.072 45.96L12.7256 46.3346C12.2834 47.9286 12.0408 49.6014 12.0408 51.3459H4.29752V41.0837L4.3044 41.082ZM36.7744 41.082H38.724V51.3442H30.9808C30.9808 49.6099 30.7381 47.9286 30.2959 46.3328L31.9495 45.9583C34.3069 45.3066 36.1601 43.4406 36.7675 41.0803L36.7744 41.082ZM16.0913 47.1196C18.1786 47.4121 19.7875 49.1892 19.7875 51.3425H15.4857C15.4857 49.8767 15.7042 48.4623 16.0913 47.1196ZM26.9267 47.1196C27.3139 48.4623 27.5324 49.8733 27.5324 51.3425H23.2306C23.2306 49.1857 24.8395 47.4121 26.9267 47.1196ZM15.8797 54.765H19.7909V61.9656C17.8981 59.9901 16.5215 57.5187 15.8797 54.765ZM23.2323 54.765H27.1435C26.5103 57.5187 25.1303 59.9936 23.2323 61.9656V54.765Z" fill="white"/>
</svg>
