<svg width="66" height="58" viewBox="0 0 66 58" fill="none" xmlns="http://www.w3.org/2000/svg">
<path fill-rule="evenodd" clip-rule="evenodd" d="M57.0686 4.16965H8.53436C7.46168 4.16965 6.43294 4.60327 5.67445 5.37512C4.91595 6.14697 4.48983 7.19382 4.48983 8.28538V45.3269L15.1916 35.6385C15.5222 35.3033 15.9565 35.0948 16.4209 35.0483C16.8853 35.0018 17.3513 35.1202 17.7397 35.3833L28.4981 42.6805L43.5033 27.4112C43.8032 27.1057 44.19 26.9039 44.6088 26.8345C45.0276 26.7651 45.4573 26.8315 45.837 27.0243L61.1131 35.0376V8.28538C61.1131 7.19382 60.687 6.14697 59.9285 5.37512C59.17 4.60327 58.1413 4.16965 57.0686 4.16965ZM8.53436 0.0539246C6.38901 0.0539246 4.33153 0.921165 2.81454 2.46486C1.29755 4.00856 0.445313 6.10226 0.445312 8.28538V49.4427C0.445313 51.6258 1.29755 53.7195 2.81454 55.2632C4.33153 56.8069 6.38901 57.6741 8.53436 57.6741H57.0686C58.1309 57.6741 59.1828 57.4612 60.1642 57.0475C61.1456 56.6339 62.0373 56.0275 62.7884 55.2632C63.5396 54.4988 64.1354 53.5914 64.5419 52.5927C64.9484 51.594 65.1577 50.5236 65.1577 49.4427V8.28538C65.1577 6.10226 64.3054 4.00856 62.7884 2.46486C61.2714 0.921165 59.214 0.0539246 57.0686 0.0539246H8.53436ZM24.7124 18.5747C24.7124 19.3854 24.5555 20.1882 24.2506 20.9372C23.9458 21.6862 23.4989 22.3668 22.9355 22.9401C22.3722 23.5134 21.7034 23.9681 20.9673 24.2784C20.2313 24.5886 19.4424 24.7483 18.6457 24.7483C17.849 24.7483 17.0601 24.5886 16.324 24.2784C15.5879 23.9681 14.9191 23.5134 14.3558 22.9401C13.7924 22.3668 13.3456 21.6862 13.0407 20.9372C12.7358 20.1882 12.5789 19.3854 12.5789 18.5747C12.5789 16.9374 13.2181 15.3671 14.3558 14.2093C15.4935 13.0515 17.0366 12.4011 18.6457 12.4011C20.2547 12.4011 21.7978 13.0515 22.9355 14.2093C24.0733 15.3671 24.7124 16.9374 24.7124 18.5747Z" fill="white"/>
</svg>
