<svg width="147" height="42" viewBox="0 0 147 42" fill="none" xmlns="http://www.w3.org/2000/svg">
<path d="M8.4151 0.372957C5.4445 1.61395 2.17882 5.1199 1.14741 9.52063C-0.158788 15.0965 5.27691 17.4544 5.72275 16.6813C6.2475 15.7729 4.74874 15.4657 4.44023 12.5726C4.04151 8.83603 5.78209 4.66081 7.97267 2.82884C8.37986 2.48848 8.3605 2.9622 8.3605 3.83845C8.3605 5.40539 8.27374 19.4719 8.27374 22.4076C8.27374 26.38 8.10934 27.6344 7.81409 28.8739C7.51492 30.13 7.03397 30.9787 7.39841 31.3057C7.80558 31.6714 9.54406 30.8015 10.5505 29.3996C11.7573 27.7183 12.1798 25.6991 12.2557 23.5063C12.3473 20.8629 12.3434 16.6684 12.3473 14.2759C12.3509 12.0817 12.3843 5.65636 12.3087 1.79369C12.2902 0.846261 9.65742 -0.147735 8.41496 0.371804M113.901 18.9633C113.805 21.0285 113.347 22.6426 112.779 23.7812C111.678 25.9854 109.395 26.6698 108.425 23.5012C107.897 21.774 107.872 18.8894 108.252 16.4791C108.638 14.0237 109.718 12.1693 111.506 12.3365C113.27 12.5018 114.095 14.7697 113.901 18.9632V18.9633ZM84.1707 31.7759C84.1468 35.2073 83.6057 38.2159 82.4453 39.0897C80.7995 40.3287 78.5874 39.3993 79.0455 36.8954C79.4508 34.6797 81.3675 32.4169 84.1754 29.6521C84.1754 29.6521 84.1812 30.2826 84.1708 31.7759H84.1707ZM83.7212 18.9433C83.6206 20.8243 83.132 22.7138 82.5989 23.7815C81.4986 25.9856 79.1984 26.6747 78.2452 23.5015C77.5934 21.3334 77.7495 18.5273 78.072 16.7592C78.4904 14.4652 79.5047 12.337 81.3264 12.337C83.0975 12.337 83.9709 14.2763 83.7212 18.9435V18.9433ZM66.4984 18.9146C66.3904 20.9066 66.001 22.5719 65.3761 23.7815C64.2455 25.9705 62.0088 26.6647 61.0224 23.5015C60.3112 21.2205 60.5533 18.1104 60.8491 16.4303C61.2881 13.9371 62.3875 12.1695 64.1036 12.337C65.8664 12.5089 66.7234 14.77 66.4984 18.9147V18.9146ZM145.427 21.2414C144.996 21.2414 144.799 21.6847 144.636 22.4309C144.072 25.0255 143.479 25.6114 142.714 25.6114C141.859 25.6114 141.092 24.3267 140.894 21.7548C140.739 19.7326 140.764 16.0095 140.962 12.3061C141.003 11.5451 140.793 10.7923 138.748 10.0508C137.868 9.73194 136.589 9.26236 135.952 10.7967C134.152 15.1313 133.448 18.5727 133.283 19.9707C133.274 20.043 133.185 20.0578 133.17 19.8887C133.064 18.7691 132.828 16.7344 132.799 12.4594C132.793 11.6254 132.616 10.9154 131.694 10.3341C131.095 9.95698 129.277 9.28993 128.623 10.0835C128.056 10.7325 127.399 12.4792 126.717 14.5496C126.163 16.2323 125.776 17.3707 125.776 17.3707C125.776 17.3707 125.784 12.8303 125.79 11.108C125.793 10.4583 125.347 10.2417 125.212 10.2025C124.606 10.0269 123.412 9.73366 122.905 9.73366C122.279 9.73366 122.126 10.0825 122.126 10.5909C122.126 10.6574 122.028 16.5688 122.028 20.7023C122.028 20.8819 122.028 21.0778 122.029 21.2859C121.684 23.1857 120.562 25.7646 119.342 25.7646C118.12 25.7646 117.544 24.6864 117.544 19.7586C117.544 16.8839 117.63 15.6339 117.673 13.5547C117.698 12.3571 117.745 11.4375 117.743 11.2288C117.734 10.5888 116.625 10.2662 116.109 10.147C115.59 10.0268 115.14 9.98023 114.788 10.0002C114.29 10.0283 113.938 10.3542 113.938 10.8026C113.938 11.043 113.941 11.5001 113.941 11.5001C113.3 10.4944 112.268 9.79445 111.582 9.59161C109.734 9.04377 107.805 9.52919 106.35 11.5609C105.194 13.1751 104.497 15.0034 104.223 17.6302C104.022 19.5506 104.088 21.498 104.444 23.1449C104.013 25.0032 103.214 25.7646 102.338 25.7646C101.067 25.7646 100.146 23.6941 100.253 20.1131C100.323 17.7578 100.795 16.1049 101.312 13.7137C101.532 12.6943 101.353 12.1606 100.904 11.6491C100.493 11.18 99.6165 10.9404 98.3564 11.2351C97.4589 11.4453 96.1757 11.6713 95.0016 11.8449C95.0016 11.8449 95.0724 11.5628 95.1306 11.0654C95.4359 8.45717 92.5961 8.66879 91.69 9.50188C91.1491 9.99925 90.781 10.5859 90.6412 11.6406C90.4197 13.3143 91.7874 14.1038 91.7874 14.1038C91.3387 16.1539 90.2386 18.8322 89.1029 20.7685C88.4946 21.8059 88.0293 22.5747 87.4285 23.3919C87.4263 23.0876 87.4247 22.7833 87.4236 22.4804C87.4099 18.1702 87.4673 14.7778 87.4927 13.5551C87.5174 12.3575 87.5655 11.4623 87.5628 11.2536C87.5561 10.7855 87.2821 10.6087 86.7125 10.3849C86.2087 10.1869 85.6131 10.0499 84.9953 10.0021C84.2156 9.9414 83.7458 10.3542 83.758 10.8423C83.7604 10.9344 83.7604 11.5003 83.7604 11.5003C83.1191 10.4946 82.0877 9.79463 81.4015 9.59177C79.5532 9.04418 77.6245 9.52961 76.1697 11.561C75.0137 13.1753 74.2567 15.4405 74.0422 17.6104C73.8424 19.6327 73.8792 21.3514 74.1516 22.7991C73.8577 24.2488 73.0127 25.7648 72.0573 25.7648C70.8359 25.7648 70.1408 24.6866 70.1408 19.7588C70.1408 16.8841 70.2273 15.6341 70.2698 13.5551C70.2945 12.3575 70.3421 11.4377 70.3395 11.2292C70.3305 10.5892 69.2216 10.2666 68.7056 10.1472C68.1657 10.0226 67.6996 9.97676 67.3417 10.0031C66.8695 10.0382 66.5375 10.4602 66.5375 10.775V11.5003C65.8963 10.4946 64.8649 9.79463 64.1787 9.59177C62.3304 9.04418 60.4124 9.53742 58.9469 11.561C57.9912 12.8805 57.2176 14.3434 56.8194 17.5816C56.7043 18.5174 56.6535 19.3937 56.6601 20.2128C56.279 22.5388 54.5958 25.2196 53.219 25.2196C52.4133 25.2196 51.646 23.66 51.646 20.3362C51.646 15.9086 51.9206 9.6047 51.967 8.99714C51.967 8.99714 53.7066 8.96764 54.0435 8.96372C54.9112 8.95421 55.6971 8.9747 56.8528 8.9157C57.4325 8.88619 57.991 6.80992 57.3927 6.55296C57.1216 6.43666 55.2051 6.33475 54.4454 6.31866C53.8065 6.30421 52.0281 6.17286 52.0281 6.17286C52.0281 6.17286 52.1876 1.98862 52.2247 1.54661C52.2563 1.17821 51.7787 0.988532 51.5048 0.873439C50.8389 0.592335 50.243 0.457745 49.5368 0.312438C48.5611 0.11155 48.1184 0.308049 48.0319 1.12993C47.9017 2.37726 47.8343 6.03071 47.8343 6.03071C47.1183 6.03071 44.6724 5.89102 43.9562 5.89102C43.2907 5.89102 42.5725 8.74724 43.4925 8.78233C44.551 8.8233 46.3957 8.85865 47.6186 8.89547C47.6186 8.89547 47.5641 15.3032 47.5641 17.2815C47.5641 17.492 47.566 17.6946 47.5663 17.8913C46.8933 21.3924 44.5227 23.2836 44.5227 23.2836C45.0318 20.9674 43.9919 19.2281 42.1186 17.7557C41.4285 17.2132 40.0661 16.186 38.5417 15.0604C38.5417 15.0604 39.4246 14.192 40.2075 12.4449C40.7623 11.2073 40.7863 9.79101 39.4246 9.47871C37.1746 8.96231 35.3195 10.6114 34.7662 12.372C34.3374 13.7358 34.5661 14.7479 35.406 15.7992C35.4673 15.876 35.5337 15.9545 35.6024 16.0335C35.0945 17.0105 34.3968 18.3258 33.8059 19.3459C32.1657 22.1779 30.9266 24.418 29.9903 24.418C29.2417 24.418 29.2518 22.1437 29.2518 20.0144C29.2518 18.1787 29.3876 15.4188 29.4961 12.5614C29.532 11.6164 29.0585 11.0781 28.2648 10.5905C27.7826 10.2942 26.7534 9.71178 26.1573 9.71178C25.2651 9.71178 22.6911 9.83295 20.2589 16.8544C19.9524 17.7394 19.3502 19.3519 19.3502 19.3519L19.4021 10.9084C19.4021 10.7104 19.2964 10.519 19.0545 10.3881C18.6447 10.166 17.55 9.71178 16.5767 9.71178C16.1129 9.71178 15.8815 9.92706 15.8815 10.3562L15.7966 23.5662C15.7966 24.5699 15.8228 25.7408 15.9222 26.2529C16.0213 26.7657 16.1818 27.1829 16.3806 27.431C16.5791 27.6787 16.8087 27.8677 17.1872 27.9457C17.5395 28.0181 19.4688 28.2653 19.569 27.5295C19.6892 26.6477 19.6938 25.6939 20.7068 22.1367C22.2839 16.5986 24.3402 13.8965 25.3068 12.9369C25.4759 12.7691 25.6688 12.7591 25.6596 13.0337C25.6183 14.2478 25.4732 17.2818 25.3755 19.8593C25.1136 26.7571 26.3709 28.0357 28.1677 28.0357C29.5424 28.0357 31.4801 26.6725 33.5573 23.2219C34.8523 21.0716 36.1097 18.9631 37.013 17.4434C37.6426 18.025 38.3491 18.6511 39.0551 19.3198C40.6957 20.8739 41.2344 22.3506 40.877 23.7515C40.6036 24.8224 39.5742 25.9261 37.742 24.8534C37.208 24.5404 36.9801 24.2986 36.4431 23.9458C36.1546 23.7562 35.7141 23.6996 35.4501 23.8981C34.7641 24.4143 34.3718 25.0709 34.1478 25.8838C33.9299 26.6747 34.7235 27.0928 35.5463 27.4585C36.2548 27.7733 37.7774 28.0585 38.7485 28.091C42.5321 28.2173 45.563 26.2678 47.673 21.239C48.0506 25.582 49.6581 28.0395 52.4508 28.0395C54.318 28.0395 56.1899 25.6309 57.0086 23.2614C57.2436 24.2273 57.5915 25.0672 58.0407 25.7775C60.1927 29.1803 64.3674 28.4479 66.4644 25.5584C67.1127 24.6655 67.2114 24.3447 67.2114 24.3447C67.5173 27.0731 69.7188 28.0264 70.9794 28.0264C72.3912 28.0264 73.8488 27.3603 74.8705 25.0649C74.9902 25.314 75.1208 25.5519 75.2635 25.7774C77.4155 29.1802 81.5902 28.4478 83.6872 25.5583C83.7861 25.4227 83.8719 25.2998 83.9469 25.1894L84.0084 26.9816C84.0084 26.9816 82.8121 28.0768 82.0778 28.7487C78.8458 31.7081 76.3883 33.9533 76.2075 36.5679C75.9754 39.9017 78.6846 41.1408 80.7342 41.3031C82.9108 41.4755 84.7748 40.2755 85.9205 38.5961C86.9282 37.1179 87.5878 33.9365 87.5394 30.7943C87.5201 29.536 87.4884 27.9361 87.4635 26.2212C88.5994 24.9046 89.8792 23.2406 91.0577 21.2928C92.342 19.1702 93.7183 16.3196 94.4231 14.1012C94.4231 14.1012 95.6189 14.1115 96.8951 14.0281C97.3033 14.0015 97.4205 14.0846 97.3451 14.3833C97.2539 14.7441 95.7327 20.5999 97.121 24.5009C98.0713 27.1713 100.214 28.0305 101.484 28.0305C102.97 28.0305 104.393 26.9099 105.155 25.2459C105.247 25.4314 105.343 25.611 105.447 25.7767C107.599 29.1795 111.759 28.4427 113.871 25.5576C114.348 24.9066 114.618 24.3438 114.618 24.3438C115.071 27.1676 117.272 28.04 118.532 28.04C119.845 28.04 121.091 27.5028 122.102 25.1157C122.144 26.1668 122.21 27.0262 122.315 27.2972C122.379 27.4629 122.752 27.6709 123.024 27.7713C124.225 28.2158 125.45 28.0056 125.903 27.9142C126.217 27.8508 126.461 27.5994 126.495 26.9504C126.583 25.2462 126.529 22.3829 127.047 20.2549C127.915 16.6836 128.726 15.2983 129.111 14.6125C129.326 14.2282 129.569 14.1649 129.577 14.5715C129.596 15.3944 129.637 17.8108 129.973 21.0573C130.22 23.445 130.551 24.8563 130.804 25.303C131.529 26.5803 132.423 26.6408 133.152 26.6408C133.615 26.6408 134.584 26.513 134.498 25.7001C134.455 25.3039 134.529 22.8554 135.386 19.337C135.946 17.0394 136.878 14.9633 137.215 14.2043C137.339 13.9244 137.396 14.1451 137.395 14.1881C137.324 15.7704 137.165 20.946 137.811 23.7766C138.686 27.6112 141.219 28.0403 142.102 28.0403C143.986 28.0403 145.527 26.6098 146.046 22.8459C146.171 21.9401 145.986 21.2407 145.431 21.2407" fill="white"/>
</svg>
