<svg width="112" height="74" viewBox="0 0 112 74" fill="none" xmlns="http://www.w3.org/2000/svg">
<g clip-path="url(#clip0_871_187)">
<path opacity="0.99" d="M67.7695 0.216305C67.523 0.226558 67.4266 0.481145 67.3295 0.577431C67.2258 0.680142 67.1465 0.85992 66.9652 0.808555C66.7839 0.757227 66.6287 1.11642 66.5251 1.24481C66.4215 1.37319 66.188 1.37157 66.0326 1.34593C65.8772 1.3199 65.7742 1.31992 65.6188 1.31992C65.4634 1.31992 64.9456 1.19118 64.7125 1.06279C64.4794 0.934425 64.0144 0.909676 63.8849 0.909676C63.7554 0.909676 63.6262 0.934711 63.4448 0.857673C63.2635 0.780644 63.235 0.755267 63.0019 0.883679C62.7688 1.01204 62.874 1.52731 62.8999 1.70705C62.9258 1.88679 63.0281 1.93595 62.795 1.98729C62.5619 2.03865 62.3287 2.75996 62.3287 2.86267C62.3287 2.96538 62.1759 3.11786 62.0723 3.19492C61.9687 3.27194 61.6821 3.16921 61.4748 3.19492C61.2676 3.22057 61.1909 3.40068 61.0873 3.45204C60.9837 3.50339 60.7499 3.47772 60.5685 3.45204C60.3872 3.42636 60.3351 3.19615 60.3092 3.0678C60.2833 2.93939 60.2056 2.88578 60.0761 2.88578C59.9465 2.88578 59.4032 2.86267 58.9628 2.86267C58.5225 2.86267 57.9001 2.88771 57.5116 2.81067C57.1231 2.73364 56.9151 3.16861 56.7597 3.37403C56.6043 3.57946 56.4751 3.401 56.3197 3.24691C56.1643 3.09286 55.6468 3.06747 55.4396 3.04179C55.2324 3.01612 55.1825 3.27133 55.1307 3.37403C55.0789 3.47676 54.8451 3.47803 54.8451 3.47803L54.8393 3.53581C54.8215 3.68519 54.761 3.82347 54.6644 3.87673C54.5479 3.9409 54.5469 3.95218 54.5857 4.0934C54.6246 4.23463 54.0408 4.40253 54.0408 4.40253V4.44009C54.0537 4.59416 54.0939 4.80155 53.9125 4.82722C53.7312 4.8529 53.6532 4.90365 53.5366 5.12191C53.4201 5.34017 53.4061 5.42847 53.3414 5.45414C53.2766 5.47984 53.1863 5.53217 53.251 5.64771C53.3158 5.76326 53.2649 5.86664 53.2131 5.93084C53.1613 5.99504 53.1995 5.98189 53.0441 6.02039C52.8887 6.05892 52.9531 6.12345 53.0179 6.16196C53.0826 6.20048 53.1617 6.18797 53.1228 6.30353C53.0839 6.41905 53.0959 6.61009 52.9276 6.63577C52.7592 6.66144 52.6685 6.66245 52.6944 6.94489H52.6041C52.5808 6.95874 52.5581 6.98115 52.5341 7.00267C52.521 7.10861 52.4988 7.21215 52.4759 7.25114C52.4272 7.28647 52.3769 7.33032 52.3331 7.37536C52.3304 7.40367 52.3292 7.43092 52.3331 7.45915C52.361 7.66192 52.4752 7.73599 52.5137 7.75382C52.449 7.72816 52.45 8.10084 52.5924 8.12651C52.7349 8.15219 52.7993 8.21641 52.7993 8.35764C52.7993 8.49886 52.7725 8.69051 52.8372 8.74189C52.902 8.7932 52.9677 8.90849 52.9159 8.947C52.8641 8.98552 52.799 8.90946 52.7731 9.025C52.7472 9.14056 52.7323 9.13863 52.8489 9.21569C52.9654 9.2927 53.0199 9.42275 53.0587 9.57681C53.0976 9.73088 53.1079 9.70488 53.082 9.78194C53.0561 9.85896 53.0707 9.8468 53.0966 9.9495C53.1225 10.0522 53.1082 10.0766 53.1082 10.0766C53.1082 10.0766 53.0435 10.2683 52.9917 10.3453C52.9399 10.4223 52.6828 10.6024 52.6828 10.6024C52.6828 10.6024 52.6652 10.6121 52.6565 10.6169L52.6507 10.6226L52.5983 10.7179C52.5962 10.731 52.5906 10.7425 52.5924 10.7584L52.5662 10.7699C52.4626 10.6159 51.9963 10.283 51.6337 10.1546C51.1646 9.98847 51.3477 9.74301 51.3218 9.4092C51.2959 9.0754 50.7529 8.71679 50.2349 8.56271C49.7169 8.40866 48.758 8.84554 48.5767 9.05096C48.3954 9.25638 48.057 8.9219 47.9793 8.76784C47.9016 8.61377 47.7733 8.56204 47.3848 8.51072C46.9963 8.45934 46.3999 9.25449 46.3999 9.3572C46.3999 9.45991 46.2195 9.40856 46.0123 9.3572C45.8051 9.30585 45.7539 9.43618 45.5985 9.51321C45.4431 9.59025 45.3388 9.33215 45.3129 9.17808C45.287 9.02401 45.2362 8.91998 45.1584 8.84295C45.0807 8.76592 45.0273 8.22661 45.0273 8.14958C45.0273 8.07254 44.8742 7.8947 44.7446 7.84334C44.6151 7.79199 44.6125 7.4308 44.5348 7.25109C44.4571 7.07131 44.3017 7.14932 44.0686 7.09797C43.8354 7.04661 43.7849 7.22638 43.7072 7.32909C43.6295 7.4318 43.5009 7.61286 43.0865 7.66422C42.6721 7.71558 42.232 8.53482 42.1802 8.84295C42.1284 9.15108 42.049 9.04967 41.8159 8.94696C41.5828 8.84424 41.4018 8.02209 41.3758 7.76536C41.3499 7.50861 40.9348 7.55994 40.624 7.53424C40.3132 7.50857 40.1082 7.79137 40.1082 7.79137C39.901 7.89408 39.9521 7.84238 39.5895 7.53424C39.2268 7.22611 39.3825 7.17599 39.3825 7.17599C39.3825 7.17599 39.3981 7.14271 39.4146 7.10377C39.4177 7.09628 39.4174 7.08572 39.4204 7.07778C39.4303 7.05145 39.4422 7.02753 39.4467 6.99688C39.4588 6.90723 39.4319 6.81487 39.2776 6.81487C39.1348 6.81487 39.0049 6.90564 38.8638 7.03444C38.6979 7.18577 38.5166 7.39192 38.2926 7.58625C37.8782 7.94572 37.9322 7.73967 37.7768 7.53424C37.6214 7.32882 37.3614 7.1747 36.9987 7.07199C36.6361 6.96929 36.6882 7.22545 36.7918 7.48224C36.8954 7.73898 36.8446 7.89441 36.6374 8.0485C36.4302 8.20254 36.378 8.35727 35.9118 8.10049C35.4455 7.84374 36.0138 7.43118 36.0138 7.27712C36.0138 7.1976 35.7833 7.10601 35.5562 7.03444H35.5446C35.3343 6.96854 35.1308 6.91887 35.1308 6.91887C35.1308 6.91887 34.9248 6.81681 34.7694 6.97088C34.7449 6.99515 34.7167 7.01748 34.6849 7.03444H34.682C34.5117 7.1224 34.244 7.11478 33.9418 7.07199C33.8772 7.06284 33.8307 7.04982 33.7873 7.03444H33.7728C33.6786 6.99843 33.6356 6.94468 33.6183 6.88132C33.6102 6.85017 33.6089 6.8138 33.6125 6.77732C33.6159 6.74026 33.6225 6.70312 33.6329 6.66175C33.6847 6.45631 33.5801 6.45598 33.3211 6.40462C33.0621 6.35327 33.166 5.84091 33.1142 5.58413C33.0624 5.32736 32.3374 5.53278 31.9747 5.58413C31.6121 5.63549 31.0418 5.42775 30.7829 5.17101C30.5239 4.91421 30.4707 5.06988 30.2117 5.06988C29.9527 5.06988 29.6437 5.01818 29.4365 4.81276C29.2293 4.60732 28.243 4.60634 27.8803 4.50363C27.5177 4.40092 27.312 4.14539 27.312 4.14539C27.312 4.14539 27.1559 3.88921 26.7933 3.73514C26.4307 3.58108 26.4818 3.73348 26.2746 3.37401C26.0674 3.01454 25.6548 3.57978 25.4994 3.63114C25.344 3.68249 24.8783 3.47802 24.6193 3.47802C24.3603 3.47802 23.6336 3.47709 23.1156 3.42602C22.5976 3.37466 22.3388 3.22183 21.9761 3.06778C21.6135 2.91369 20.9392 3.06778 20.5249 3.2729C20.1105 3.47801 18.8152 3.52938 18.6598 3.47802C18.5044 3.42669 17.987 3.37531 17.7797 3.47802C17.5725 3.58073 17.3154 3.42537 17.0046 3.37401C16.6937 3.32268 16.3292 4.3512 16.3809 4.40251C16.4327 4.45387 16.0199 4.81276 15.8127 4.81276C15.6055 4.81276 15.3457 4.96557 15.2939 5.17101C15.2421 5.37642 14.9322 5.58317 14.6732 5.73726C14.4142 5.8913 14.2587 5.78891 14.207 5.53213C14.1552 5.27535 13.7912 5.37677 13.6358 5.42813C13.4803 5.47948 13.377 5.53114 12.9626 5.223C12.5482 4.91487 12.3927 5.63583 12.4963 5.84126C12.5999 6.04668 12.2894 6.19951 12.2894 6.19951C12.2894 6.19951 12.2761 6.22646 12.2632 6.41907C12.2502 6.61164 12.3794 6.62291 12.4701 6.63575C12.5607 6.64859 12.4432 6.86623 12.3914 6.93043C12.3757 6.94989 12.3898 6.9908 12.4118 7.03444C12.4623 7.13514 12.5768 7.26731 12.6129 7.30311C12.6647 7.35448 12.6138 7.47101 12.5488 7.49668C12.484 7.52236 12.5358 7.58561 12.5488 7.6498C12.5617 7.71401 12.5607 7.75255 12.4701 7.76536C12.3794 7.77821 12.2509 7.93391 12.1991 8.1265C12.1473 8.31908 12.3008 8.43273 12.3914 8.43273C12.4821 8.43273 12.5478 8.51171 12.5867 8.58874C12.6255 8.66577 12.6657 8.90847 12.6916 8.94698C12.7175 8.9855 12.7421 9.04908 12.7032 9.12611C12.6644 9.20314 12.8208 9.32 12.8985 9.34567C12.9762 9.37136 13.1041 9.57584 13.117 9.61435C13.13 9.65287 13.3641 9.76812 13.4289 9.81948C13.4936 9.87083 13.4166 10.0137 13.3648 10.065C13.313 10.1164 13.3521 10.1912 13.391 10.3453C13.4298 10.4993 13.4923 10.5523 13.5571 10.5909C13.6218 10.6294 13.6494 10.8227 13.5717 10.9895C13.494 11.1564 13.6627 11.2977 13.7145 11.3362C13.7663 11.3747 13.8424 11.4878 13.8164 11.5905C13.7906 11.6932 13.855 11.7574 13.9068 11.8216C13.9586 11.8858 14.0768 12.0412 14.1545 12.1567C14.2322 12.2723 14.6467 12.5689 14.7373 12.6074C14.828 12.6459 14.816 12.7589 14.6994 12.8616C14.5829 12.9644 14.1027 12.8369 13.9214 12.8241C13.7401 12.8112 13.6617 12.9413 13.6358 13.1852C13.6146 13.3841 13.7831 13.4221 13.8951 13.4221C13.9205 13.4221 13.9426 13.4188 13.9592 13.4163C14.0499 13.4035 13.9981 13.5816 13.9592 13.7485C13.9204 13.9155 14.1814 13.9784 14.2332 13.9912C14.285 14.0041 14.2966 14.0702 14.2448 14.1472C14.193 14.2243 14.3096 14.4811 14.3614 14.6095C14.4132 14.7379 14.4401 14.751 14.4401 14.751C14.4401 14.751 14.4178 14.8171 14.3935 14.8984L14.3992 14.9041C14.3992 14.9041 14.3931 14.9214 14.3818 14.9503C14.3459 15.0874 14.3124 15.2543 14.3847 15.3404C14.5142 15.4944 14.5003 15.5461 14.4225 15.5975C14.3448 15.6488 14.1632 15.8042 14.0466 15.8171C13.9301 15.8299 13.7354 15.9326 13.7873 16.0482C13.839 16.1637 13.8131 16.2267 13.7873 16.2909C13.7613 16.3551 13.6214 16.677 13.5308 16.7155C13.4401 16.7541 12.8832 16.6635 12.7148 16.6635C12.5465 16.6635 11.8467 16.6363 11.7561 16.8802C11.6654 17.1242 11.6392 17.3184 11.4967 17.3569C11.3543 17.3954 11.3293 17.3678 11.2257 17.5476C11.1221 17.7273 10.796 17.9585 10.6924 18.0098C10.6197 18.0459 10.3637 18.1951 10.1941 18.3132C10.1224 18.3631 10.0647 18.404 10.0455 18.4345C9.98069 18.5372 9.42473 18.9356 9.30818 19.0383C9.19162 19.141 8.88045 19.4621 8.81568 19.5006C8.75093 19.5391 8.59551 19.6662 8.58255 19.7433C8.56963 19.8203 8.49284 19.9099 8.4281 19.9484C8.36334 19.9869 8.09036 20.0791 7.88314 20.3615C7.67594 20.644 7.07947 21.3615 7.01472 21.3872C6.94994 21.4128 6.82077 21.4128 6.80781 21.5027C6.79487 21.5926 6.75599 21.799 6.69124 21.8118C6.62649 21.8246 6.40534 21.8626 6.37942 21.991C6.35355 22.1194 6.30398 22.3007 6.21332 22.3521C6.12267 22.4034 6.01709 22.5806 5.93939 22.6063C5.86168 22.632 5.69362 22.581 5.61592 22.7479C5.53819 22.9148 5.39766 23.2105 5.19044 23.3517C4.98324 23.4929 4.64519 23.9806 4.73582 24.1346C4.82649 24.2887 4.95633 24.6235 4.87862 24.7904C4.80092 24.9574 4.82747 25.0601 4.93108 25.1371C5.03468 25.2142 5.1111 25.3278 5.0593 25.5589C5.0075 25.79 5.0075 25.9185 5.0593 26.0212C5.1111 26.1239 5.1383 26.3695 5.04765 26.4979C4.95699 26.6263 4.8537 26.869 4.84073 26.9717C4.82781 27.0744 4.81321 27.024 4.7096 27.0497C4.606 27.0754 4.42531 27.1271 4.41235 27.3068C4.3994 27.4866 4.41366 27.5107 4.63383 27.639C4.85399 27.7674 5.02079 27.9864 5.08553 28.0377C5.15031 28.0891 5.17781 28.1536 5.21667 28.1793C5.25552 28.205 5.30539 28.3716 5.29244 28.5C5.27948 28.6284 5.3316 28.7825 5.20209 28.7311C5.07262 28.6798 5.06026 28.6033 5.02142 28.552C4.98256 28.5006 4.93012 28.4624 4.85239 28.4624C4.77471 28.4624 4.3981 28.5266 4.30744 28.4624C4.21679 28.3982 4.05098 28.0374 3.93443 28.0117C3.81787 27.9861 3.6731 28.0005 3.63427 28.1417C3.59541 28.283 3.55817 28.448 3.53227 28.5635C3.50636 28.6791 3.50471 28.8855 3.40114 28.8727C3.2975 28.8598 3.12914 28.822 3.05143 28.9247C2.97371 29.0274 2.96172 29.2832 2.89698 29.3089C2.88079 29.3153 2.86212 29.3219 2.84452 29.3291C2.82556 29.3369 2.81118 29.3464 2.79499 29.3609C2.76601 29.3868 2.74252 29.4284 2.74252 29.5025C2.74252 29.6566 2.66319 29.7586 2.61139 29.7972C2.55959 29.8357 2.30279 29.9381 2.32872 30.2334C2.35461 30.5287 2.35201 30.6186 2.23546 30.6957C2.1189 30.7727 2.05608 30.8119 2.04312 30.9788C2.03019 31.1457 1.95308 31.6324 1.62931 31.6837C1.30553 31.7351 1.29093 31.9286 1.26504 31.9928C1.23913 32.057 1.14944 32.1209 0.994012 32.198C0.838613 32.275 0.709699 32.3123 0.696774 32.5562C0.683812 32.8001 0.669572 32.865 0.708431 32.9549C0.747271 33.0448 0.735614 33.0595 0.696774 33.1109C0.657915 33.1623 0.578584 33.186 0.565631 33.3016C0.552678 33.4171 0.539399 33.6374 0.539399 33.6887C0.539399 33.7401 0.410876 34.0219 0.618087 33.9834C0.825297 33.9449 0.89008 33.9301 0.967789 33.9429C1.04549 33.9558 1.33042 34.0341 1.20092 34.1625C1.07142 34.2909 1.05847 34.522 1.20092 34.5092C1.34338 34.4964 1.5108 34.4074 1.47194 34.5872C1.43311 34.7669 1.39391 34.8562 1.44571 34.9974C1.49752 35.1387 1.65295 35.3942 1.67885 35.4713C1.70476 35.5483 1.74427 35.6786 1.84787 35.6273C1.95148 35.5759 2.0046 35.6119 2.06935 35.6504C2.13411 35.6889 2.27559 35.7165 2.34037 35.6908C2.40511 35.6651 2.44431 35.6526 2.48316 35.7168C2.52201 35.781 2.60709 36.0326 2.66384 36.0635C3.06531 36.2818 2.99407 36.655 2.97566 36.7309C2.89797 37.0518 3.19588 37.1164 3.32536 37.1036C3.45488 37.0907 4.02316 36.8718 4.12676 36.936C4.23037 37.0002 4.4007 37.2307 4.4007 37.2307C4.4007 37.2307 4.4673 37.3972 4.526 37.5456H6.21045C6.31333 37.4463 6.44774 37.3887 6.52226 37.4098C6.58902 37.4287 6.64189 37.496 6.69128 37.5456H28.1602C28.2718 37.3079 28.4834 36.8953 28.5769 36.988C28.7064 37.1164 28.9137 37.4242 29.0432 37.4243C29.1727 37.4242 29.3045 37.2175 29.2268 37.0891C29.1491 36.9607 28.8629 36.6529 29.1219 36.6529C29.3809 36.6529 29.6921 36.6018 29.8475 36.6789C30.0029 36.7559 30.2866 36.8843 30.442 36.91C30.5974 36.9357 30.78 36.8599 30.78 36.7829C30.78 36.7058 30.8837 36.5004 31.0132 36.5518C31.1427 36.6031 31.2453 36.729 31.4008 36.806C31.5561 36.883 31.9716 36.9369 32.1788 36.7829C32.3861 36.6288 32.2572 36.4741 32.4644 36.4998C32.6716 36.5254 33.3685 36.5774 33.6534 36.0895L33.8225 36.0491C33.9779 35.972 34.1151 35.9105 34.1722 35.9219C34.1912 35.9257 34.1984 35.937 34.1984 35.9595C34.1984 36.0494 34.0818 36.1271 34.3149 36.2426C34.5481 36.3582 34.7178 36.3832 34.8861 36.3062C35.0545 36.2291 35.2468 36.2946 35.3116 36.4102C35.3764 36.5257 35.5072 36.6792 35.6496 36.7049C35.7921 36.7305 35.8423 36.8965 35.8682 36.9736C35.8941 37.0506 36.0237 37.4483 36.451 37.5254C36.4975 37.5337 36.5337 37.5389 36.5764 37.5456H109.949C110.033 37.4849 110.173 37.4339 110.247 37.3751C110.376 37.2724 110.299 37.1947 110.247 36.8609C110.195 36.5271 110.608 35.6289 110.867 35.5261C111.126 35.4234 111.075 34.9871 110.894 34.8587C110.712 34.7303 110.557 34.911 110.454 34.9367C110.35 34.9624 110.222 35.0391 110.092 34.9107C109.963 34.7823 110.245 34.4992 110.375 34.3965C110.504 34.2938 110.324 34.0366 110.22 33.9082C110.117 33.7798 109.911 33.0091 109.885 32.7266C109.859 32.4442 109.599 32.4971 109.521 32.3944C109.443 32.2917 109.522 32.1356 109.859 32.0073C110.196 31.8789 110.039 31.5459 109.961 31.3919C109.883 31.2378 109.469 31.3409 109.288 31.4179C109.107 31.4949 109.054 32.111 108.795 32.3164C108.536 32.5218 108.383 32.0843 108.487 31.7761C108.59 31.468 108.795 30.7501 109.029 30.4934C109.262 30.2366 110.194 30.4433 110.401 30.3663C110.608 30.2892 110.687 30.0055 110.739 29.8C110.791 29.5946 110.764 29.4918 110.661 29.3378C110.557 29.1837 110.324 29.3644 110.194 29.4158C110.065 29.4671 109.469 29.5169 109.288 29.5169C109.107 29.5169 109.004 29.2357 108.927 29.1587C108.849 29.0816 108.642 29.0046 108.487 28.9275C108.331 28.8505 108.303 28.7458 108.303 28.5404C108.303 28.335 108.408 28.3369 108.641 28.2342C108.874 28.1315 109.651 28.0538 109.807 27.951C109.962 27.8483 109.831 27.3594 109.935 27.1797C110.039 26.9999 110.48 26.718 110.687 26.3072C110.894 25.8963 110.971 25.7695 111.101 25.5127C111.23 25.2559 110.971 25.1528 110.867 25.0244C110.764 24.896 110.299 24.5371 110.066 24.1519C109.833 23.7668 110.117 23.5609 110.427 23.2015C110.738 22.842 110.09 22.7399 109.702 22.7912C109.313 22.8426 109.028 23.3299 108.769 23.4326C108.51 23.5353 108.382 23.4827 108.175 23.3286C107.968 23.1745 107.45 23.0211 107.268 22.9183C107.087 22.8156 107.036 22.4301 106.881 22.199C106.725 21.9679 106.439 21.9948 106.077 22.0718C105.714 22.1489 105.402 22.0708 105.065 21.9938C104.729 21.9168 104.677 21.4048 104.599 21.1994C104.521 20.9939 104.392 20.8642 104.185 20.8642C103.978 20.8642 103.952 21.1458 103.926 21.2485C103.9 21.3512 103.358 21.5839 103.124 21.6096C102.891 21.6353 102.892 21.2224 102.711 20.9914C102.529 20.7602 101.959 20.9422 101.778 20.9422C101.597 20.9422 101.415 20.4276 101.286 20.1709C101.156 19.9141 100.924 20.1465 100.898 20.2749C100.872 20.4032 100.715 20.4289 100.507 20.506C100.3 20.583 100.145 20.479 100.094 20.402C100.042 20.3249 99.9887 20.2232 99.7556 20.2489C99.5225 20.2745 99.4464 20.1207 99.1874 19.8126C98.9283 19.5045 98.643 19.7356 98.2286 19.8126C97.8142 19.8896 98.2814 20.5044 98.3073 20.6071C98.3332 20.7098 98.4624 20.8902 98.2811 20.8902C98.0998 20.8902 97.8672 21.1714 97.6341 21.2485C97.401 21.3255 97.3734 21.3525 97.2698 21.1214C97.1662 20.8903 97.0904 20.8372 96.9609 20.7602C96.8314 20.6832 96.6993 20.3246 96.518 20.1449C96.3367 19.9651 96.028 19.9397 95.769 19.9397C95.51 19.9397 95.4064 19.6823 95.3028 19.4255C95.1992 19.1687 94.7588 18.7854 94.6034 18.657C94.5413 18.6056 94.5344 18.4711 94.5451 18.3161C94.5613 18.0838 94.6189 17.8095 94.6034 17.7325C94.5775 17.6041 94.0331 17.4751 93.8777 17.4494C93.7223 17.4237 93.6961 16.9621 93.6184 16.808C93.5407 16.6539 93.2826 16.7566 92.9977 16.808C92.7128 16.8593 92.2979 16.9855 92.272 17.0882C92.2461 17.191 92.2205 17.2703 92.0651 17.2703C91.9097 17.2703 91.468 17.4228 91.2608 17.6025C91.0536 17.7822 90.6391 17.8092 90.0951 17.9376C89.8604 17.9931 89.6571 18.1478 89.4948 18.3161H89.4861C89.2752 18.5364 89.1423 18.7868 89.1131 18.8881C89.0613 19.0678 88.9314 19.1452 88.6206 19.1452C88.3098 19.1452 88.4629 19.0149 88.2038 18.527C87.9448 18.0391 87.1161 18.6567 86.8312 18.631C86.691 18.6184 86.5976 18.4886 86.5019 18.3161C86.4038 18.1386 86.3021 17.9142 86.1581 17.7325C85.8732 17.373 85.2268 17.3974 84.631 17.3974C84.0353 17.3974 83.5955 18.0657 83.5178 18.1427C83.4401 18.2198 82.9725 18.2695 82.7134 18.2439C82.4544 18.2182 82.4295 17.9626 82.3259 17.6545C82.2223 17.3464 82.0147 17.1158 81.8334 17.0131C81.6521 16.9104 81.6524 17.1145 81.6265 16.9091C81.6006 16.7037 81.47 16.3955 81.3146 15.9846C81.1592 15.5738 81.5229 15.5757 81.6265 15.4473C81.7301 15.3189 81.5734 14.7028 81.5216 14.5488C81.4697 14.3947 81.3425 14.2913 81.2389 14.2657C81.1353 14.2399 81.1074 14.1873 81.0815 13.9305C81.0556 13.6737 80.8746 13.162 80.6415 12.9309C80.4084 12.6998 80.6949 12.5184 80.7726 12.3386C80.8503 12.1589 80.7208 12.0571 80.5395 11.9544C80.3582 11.8516 79.9161 12.0574 79.7089 11.9804C79.5017 11.9033 79.3466 11.0809 79.2689 10.7728C79.1912 10.4647 78.8793 10.4643 78.7239 10.5157C78.5685 10.567 78.2845 10.6457 78.1032 10.6457C77.9219 10.6457 77.17 10.9009 76.8851 10.9779C76.6002 11.055 76.3178 10.543 76.1624 10.4146C76.007 10.2862 75.6938 10.2845 75.2794 10.2845C74.865 10.2845 74.918 10.3873 74.6849 10.5157C74.4518 10.6441 74.2717 10.49 74.0904 10.2845C73.9091 10.0791 74.0898 10.0014 74.2711 10.0014C74.4524 10.0014 74.4518 9.7189 74.4518 9.53918C74.4518 9.35941 74.3999 9.20529 73.9855 9.07694C73.5711 8.94852 73.8304 8.84676 74.0117 8.69269C74.1931 8.53862 74.038 8.15495 74.038 7.8982C74.038 7.72846 73.7674 7.35883 73.5309 7.03726C73.4097 6.87238 73.2952 6.71709 73.2337 6.61257C73.2181 6.58615 73.2193 6.56174 73.2278 6.53746C73.2326 6.52147 73.241 6.50663 73.2541 6.49123C73.5378 6.15703 74.4797 6.12477 74.9443 5.97121C75.3328 5.84282 74.8144 5.12502 74.6849 4.91959C74.5554 4.71417 74.219 4.63485 74.0117 4.50646C73.8045 4.37809 73.8029 4.1726 73.6475 4.04421C73.4921 3.91584 73.3376 3.86477 73.2599 3.83909C73.1822 3.81342 73.1051 3.60892 73.0792 3.45484C73.0533 3.30079 72.9238 3.12067 72.8461 2.9666C72.7684 2.81253 72.7684 2.76275 72.8461 2.63435C72.9238 2.50599 72.9248 2.37529 72.9248 2.22122C72.9248 2.06716 72.4831 1.63282 72.3536 1.47873C72.2241 1.32469 71.578 0.528909 71.319 0.349095C71.06 0.169354 70.8003 0.219416 70.5672 0.245089C70.3341 0.270771 70.0746 0.680387 69.8415 0.834454C69.6084 0.988522 69.6077 0.501248 69.5559 0.42421C69.5041 0.347181 69.2723 0.271095 68.9614 0.271095C68.6506 0.271095 68.1069 0.244784 67.822 0.219083C67.8042 0.217511 67.786 0.218158 67.7695 0.219083V0.216217L67.7695 0.216305Z" fill="white"/>
<path opacity="0.99" d="M2.9774 36.8059C2.96005 37.0621 3.21714 37.1152 3.33584 37.1034C3.46536 37.0906 4.03364 36.8717 4.13724 36.9359C4.24085 37.0001 4.41118 37.2306 4.41118 37.2306C4.41118 37.2306 4.60384 37.7182 4.62974 37.7824C4.65566 37.8466 4.69451 38.001 4.62974 38.0395C4.56499 38.078 4.51317 38.0905 4.51317 38.1291C4.51317 38.1676 4.48629 38.1689 4.43449 38.2331C4.38269 38.2973 4.30658 38.4388 4.44907 38.4902C4.59149 38.5415 4.57762 38.5788 4.60351 38.6173C4.62942 38.6558 4.65532 38.6677 4.72008 38.6549C4.78484 38.642 5.01797 38.5518 4.95321 38.3977C4.88846 38.2437 4.93962 38.0905 5.01733 38.1291C5.09503 38.1676 5.31751 38.3592 5.43405 38.3977C5.55062 38.4363 5.84855 38.2844 5.90032 38.2331C5.95214 38.1817 6.05608 37.756 6.15969 37.6148C6.26329 37.4736 6.44205 37.384 6.5327 37.4097C6.62335 37.4354 6.68942 37.5503 6.75418 37.5888C6.81893 37.6273 6.92224 37.6537 6.96108 37.6408C6.99994 37.628 7.07798 37.6417 7.10388 37.6928C7.12978 37.7442 7.1813 38.078 7.31078 38.1551C7.44031 38.2321 7.53001 38.2848 7.58181 38.3746C7.63361 38.4645 7.68674 38.5666 7.80329 38.5538C7.91984 38.5409 7.97135 38.5656 8.01019 38.5913C8.04905 38.617 8.25079 38.7842 8.38029 38.7329C8.46027 38.7012 8.51432 38.6795 8.5464 38.6635C8.56585 38.6361 8.58492 38.6156 8.60468 38.6058C8.6565 38.5801 8.73583 38.5537 8.73583 38.5537L9.04764 38.7213C9.21601 38.7213 9.29177 38.7335 9.35655 38.7849C9.42129 38.8362 9.61593 38.886 9.73248 38.886C9.84903 38.886 10.0958 38.8873 10.2512 38.99C10.4066 39.0927 10.4963 39.1964 10.5222 39.2991C10.5481 39.4018 10.587 39.554 10.7554 39.4898C10.9237 39.4256 11.1456 39.1813 11.3528 39.2327C11.56 39.284 11.9589 39.3621 12.0755 39.5418C12.1044 39.5864 12.1309 39.6316 12.1542 39.6689C12.2248 39.7819 12.2859 39.8471 12.4514 39.7989L12.6088 39.7614C12.6088 39.7614 12.9446 39.9906 13.2295 39.8365C13.5144 39.6824 13.5925 39.7588 13.722 39.7845C13.8515 39.8102 13.8519 39.657 13.9814 39.6314C14.1109 39.6056 14.0841 39.2972 14.8352 39.6054C15.5863 39.9135 15.4054 39.9649 15.5608 40.0676C15.7162 40.1703 15.6887 40.222 15.6628 40.3247C15.6369 40.4274 15.6107 40.5549 15.8697 40.709C15.9615 40.7635 16.0648 40.8168 16.1612 40.865C16.3368 40.9527 16.4957 41.0299 16.5458 41.0961C16.6235 41.1988 16.8551 41.7359 16.881 41.8386C16.9069 41.9413 17.0377 42.0976 17.219 42.0206C17.4003 41.9436 17.3994 41.9426 17.6066 41.9426C17.8138 41.9426 18.4096 41.7115 18.5391 41.4804C18.6686 41.2492 18.7707 41.0178 18.8743 40.9921C18.9546 40.9723 18.9881 40.9228 19.0112 40.865C19.018 40.8481 19.0257 40.8302 19.0316 40.813C19.0575 40.736 19.1093 40.6329 19.2648 40.5559C19.4202 40.4788 19.7825 40.2994 19.9379 40.3507C20.0934 40.4021 20.3534 40.3761 20.4829 40.3247C20.6124 40.2734 20.6889 40.2211 20.8443 40.2467C20.9997 40.2724 22.19 40.3251 22.3713 40.3507C22.5526 40.3764 22.6582 40.3498 22.7618 40.2727C22.8654 40.1957 22.9418 40.1196 23.1232 40.1196C23.3044 40.1196 23.5389 40.0679 23.6943 40.0936C23.8497 40.1193 23.9521 40.0936 24.0557 40.0676C24.1593 40.0419 24.3672 40.0163 24.5744 40.0676C24.7816 40.119 25.1174 40.0692 25.1951 39.9665C25.2728 39.8638 25.4034 39.4259 25.5069 39.4003C25.6106 39.3746 25.7925 39.2722 25.7925 39.1951C25.7925 39.1181 25.9454 38.7081 26.049 38.5798C26.1526 38.4514 25.9982 38.2966 26.1277 38.2966C26.2572 38.2966 26.387 38.2186 26.387 38.2186H26.4395C26.4571 38.2419 26.4818 38.2626 26.5094 38.2706C26.5426 38.2801 26.5802 38.2727 26.6085 38.2446C26.6603 38.1933 26.9294 37.9766 27.0719 38.0279C27.2143 38.0793 27.3837 38.1817 27.5002 38.1175C27.6168 38.0533 27.6942 38.0013 27.7072 37.9499C27.7124 37.9289 27.7235 37.9028 27.7392 37.8777C27.7618 37.8416 27.7932 37.8117 27.8237 37.8344C27.8755 37.8729 27.9293 37.9374 27.9811 37.8604L28.0977 37.7044C28.0977 37.7044 28.4577 36.8595 28.5872 36.9879C28.7168 37.1163 28.924 37.4241 29.0535 37.4241C29.183 37.4241 29.3148 37.2174 29.2371 37.089C29.1957 37.0205 29.0963 36.9025 29.0506 36.8059H2.97774L2.9774 36.8059ZM30.1348 36.8059C30.2514 36.8544 30.3698 36.8962 30.4524 36.9099C30.5925 36.933 30.754 36.8742 30.7847 36.8059H30.1348ZM31.4113 36.8059C31.5582 36.8787 31.9383 36.9308 32.1544 36.8059H31.4113ZM35.8029 36.8059C35.8427 36.8637 35.8646 36.9313 35.8787 36.9734C35.9046 37.0505 36.0342 37.4482 36.4616 37.5252C36.8889 37.6023 37.1623 37.5914 37.1493 37.7968C37.1418 37.916 37.0872 38.0884 37.0648 38.2186C37.0484 38.3127 37.0479 38.3817 37.0968 38.3977C37.2134 38.4363 37.3688 38.3743 37.4465 38.2331C37.5242 38.0918 37.6667 38.1795 37.6797 38.2822C37.6926 38.3849 37.7199 38.8231 38.0177 38.6433C38.3156 38.4636 38.586 38.2058 38.7026 38.3342C38.8191 38.4626 38.9752 38.7467 38.755 38.9264C38.5349 39.1062 38.3004 39.3245 38.5335 39.3887C38.7666 39.4529 38.7926 39.3116 38.8832 39.1576C38.9739 39.0035 39.1808 38.965 39.2067 39.1576C39.2326 39.3501 39.221 39.3482 39.1951 39.5794C39.1951 39.5794 39.7248 40.4943 39.571 39.5794C39.5451 39.4253 40.012 39.1184 40.3228 39.2211C40.5663 39.2591 41.084 39.2471 41.372 39.3887C41.3941 39.3986 41.417 39.4084 41.4361 39.4205C41.4983 39.4598 41.5449 39.5119 41.5643 39.5794C41.6262 39.794 41.8348 40.4313 42.1151 40.865C42.1859 40.9748 42.2635 41.0713 42.3424 41.1452C42.3766 41.1773 42.409 41.2007 42.4444 41.2232C42.4825 41.2475 42.5218 41.2697 42.5609 41.281C42.5651 41.2822 42.5713 41.28 42.5755 41.281C42.58 41.2821 42.5827 41.2858 42.5872 41.2868C42.6043 41.2903 42.6226 41.2947 42.6396 41.2954C42.6787 41.2971 42.7165 41.2895 42.7562 41.2752C43.326 41.0698 43.6376 40.7106 43.7411 41.0701C43.8447 41.4296 44.0527 41.7381 44.2599 41.7894C44.4671 41.8408 43.7408 42.3525 43.948 42.5579C44.1553 42.7633 44.3635 42.9194 44.2599 43.1762C44.1563 43.4329 43.9992 43.5348 43.8956 43.7915C43.792 44.0483 43.8447 44.5113 43.7411 44.768C43.6375 45.0248 43.4831 45.0226 43.5867 45.2793C43.6903 45.5361 43.7917 45.6411 44.1025 45.6925C44.4133 45.7438 44.7252 46.2556 44.8806 46.461C45.036 46.6664 44.8806 47.0263 45.14 47.1803C45.399 47.3344 45.7089 47.2333 45.7607 47.0792C45.8125 46.9252 46.0715 46.8218 46.2269 47.0272C46.3823 47.2326 46.5902 47.693 46.2794 47.7957C45.9686 47.8984 46.0731 48.1045 46.125 48.31C46.1768 48.5154 46.3309 48.6197 46.02 48.6711C45.7092 48.7224 45.6053 48.8233 45.7607 48.9773C45.9161 49.1314 46.0197 49.3885 46.227 49.2344C46.4342 49.0804 46.5388 49.2335 46.5388 49.3876C46.5388 49.5416 46.4355 49.8511 46.3319 49.9538C46.2282 50.0565 46.021 50.3133 46.3319 50.4161C46.6427 50.5188 46.8496 50.4684 47.005 50.7252C47.1605 50.9819 47.3143 50.8282 47.5733 50.9823C47.8323 51.1364 47.8324 51.1865 48.0396 51.3405C48.2468 51.4946 48.298 51.2905 48.4534 51.4446C48.6088 51.5986 48.8186 51.6494 48.6632 51.8548C48.5078 52.0602 48.3498 52.5203 48.4534 52.8284C48.557 53.1365 48.6095 53.343 48.5059 53.5998C48.4023 53.8565 48.196 54.3204 48.3514 54.4231C48.5068 54.5258 48.6115 55.0382 49.1295 55.2436C49.6475 55.449 49.5433 55.5505 49.077 55.6019C48.6108 55.6532 48.2999 55.6536 48.1445 55.859C47.9891 56.0644 47.5733 55.9113 47.5733 55.7059C47.5733 55.5005 47.729 54.9351 47.3664 54.9865C47.0038 55.0379 46.6939 54.7814 46.7457 55.2436C46.7975 55.7058 46.5909 55.8593 46.3319 55.6539C46.0729 55.4485 45.6587 55.2956 45.6587 55.2956C45.6587 55.2956 45.8659 54.8334 45.6587 54.8334C45.4515 54.8334 45.14 54.8334 45.14 55.0385C45.14 55.2439 44.9842 55.4988 44.8806 55.3447C44.777 55.1907 44.7258 55.0392 44.4668 55.0905C44.2078 55.1419 44.2068 55.1913 44.155 55.3967C44.1032 55.6022 43.8966 55.7572 43.7412 55.7059C43.5858 55.6545 43.7421 55.3473 43.7936 55.0905C43.8454 54.8337 43.8975 54.1131 43.5867 54.2672C43.2759 54.4212 43.2214 54.5753 42.9106 54.7294C42.5998 54.8835 41.7731 54.8832 41.9286 55.3968C42.084 55.9103 42.0824 56.2192 42.0306 56.3732C41.9788 56.5273 41.9801 56.63 42.1355 56.8355C42.2909 57.0409 42.6516 57.3488 42.4444 57.5028C42.2372 57.6569 41.9781 57.9661 41.9781 58.2742C41.9781 58.5823 42.0827 58.8886 41.8237 59.0427C41.5647 59.1968 40.7878 59.3515 40.6842 59.557C40.5806 59.7624 40.7871 60.4314 40.6317 60.5855C40.4763 60.7395 40.2195 60.8414 39.6497 61.2008C39.0799 61.5603 38.7686 61.7151 38.9241 62.1773C39.0795 62.6395 38.9736 62.6909 38.9736 63.1018C38.9736 63.234 38.9602 63.3418 38.9299 63.4225C38.8657 63.5928 38.7354 63.648 38.5598 63.6131C38.4303 63.5875 38.0695 63.4353 37.7263 63.4225C37.3831 63.4096 37.0583 63.5362 37.0065 64.0754V64.1274C37.2137 64.1916 37.342 64.2558 37.3679 64.3585C37.3938 64.4612 37.3812 64.9614 37.6272 65.231C37.8733 65.5006 38.3021 65.6827 38.5481 65.7597C38.7942 65.8367 38.8965 65.8868 39.026 66.0024C39.1555 66.1179 39.3897 66.1295 39.4544 66.1295C39.5192 66.1295 39.6497 66.1449 39.7663 66.2219C39.8828 66.299 40.0884 66.376 40.218 66.3375C40.3475 66.299 40.5159 66.2711 40.5677 66.2711C40.6194 66.271 40.7895 66.1953 40.6988 66.1439C40.6081 66.0926 40.2947 65.8875 40.489 65.8233C40.6832 65.7591 40.7231 65.7196 40.6842 65.6297C40.6454 65.5398 40.6059 65.3469 40.7483 65.3726C40.8908 65.3983 40.9426 65.4384 40.9815 65.5026C41.0203 65.5668 41.1003 65.6165 41.1651 65.6037C41.2298 65.5909 41.2936 65.6432 41.3195 65.6817C41.3454 65.7202 41.644 65.9757 41.7217 65.8088C41.7994 65.6419 41.8888 65.3205 42.083 65.205C42.2773 65.0894 42.3421 65.0901 42.4327 65.0259C42.5234 64.9617 42.6542 64.8978 42.7708 64.9363C42.8873 64.9748 42.8977 64.9748 43.0272 64.9363C43.1567 64.8978 43.3663 64.7187 43.444 64.6416C43.5217 64.5646 43.5868 64.5393 43.7033 64.5521C43.8199 64.5649 43.9611 64.5771 44.0647 64.5001C44.1683 64.423 44.2447 64.4352 44.3095 64.4481C44.3742 64.4609 44.5572 64.5013 44.6737 64.4885C44.7903 64.4757 44.8806 64.4494 44.9972 64.5521C45.1138 64.6548 45.1384 64.6538 45.3586 64.7052C45.5787 64.7565 45.9437 64.9116 46.0084 65.0143C46.0732 65.117 46.3964 65.4638 46.4223 65.7077C46.4482 65.9516 46.4611 66.1192 46.5388 66.2219C46.6165 66.3247 46.7574 66.4646 46.7574 66.4646L46.7457 66.4762L46.772 66.4646L46.8361 66.4588L46.8565 66.4328V66.3606L46.8157 66.2797L46.8128 66.2133L46.839 66.1642L46.9497 65.803L47.0517 65.5864L47.0605 65.5401L47.0517 65.5083C47.0517 65.5083 47.0234 65.4483 47.008 65.4188C47.0032 65.409 47.0022 65.3986 47.0022 65.3986L47.0342 65.257L46.9876 65.1039L46.976 64.8583L46.9352 64.815L46.8594 64.7572V64.7312L46.9556 64.7688H46.9934L47.0138 64.7514L47.0255 64.711L47.0342 64.3845L47.0197 64.3528L46.9556 64.2892L46.9293 64.1996L46.871 64.1736L46.8332 64.217L46.7807 64.4539L46.7486 64.5117L46.7341 64.4799L46.7282 64.3383L46.702 64.2805L46.6758 64.269L46.6117 64.295L46.568 64.3788L46.5476 64.4048H46.5213L46.5009 64.347L46.5097 64.2314L46.4951 64.165L46.4835 64.1419L46.4427 64.1332L46.4106 64.1476L46.3727 64.191L46.3465 64.2632L46.3261 64.4885L46.294 64.4943L46.2241 64.4365L46.1338 64.2748L46.0288 64.1332V64.1014L46.0492 64.0754L46.1075 64.0581L46.1512 64.0176L46.2561 63.8067L46.3028 63.7634H46.3348L46.4106 63.7114L46.4427 63.6594L46.4689 63.5814L46.4776 63.5698L46.4368 63.5641L46.3844 63.5323L46.2678 63.5236L46.1512 63.4976L46.0288 63.4398L45.9968 63.3907L46.0026 63.2809L46.0813 62.8389L46.0696 62.6569L46.023 62.3622L46.0288 62.2091L46.0551 62.1369L46.0929 62.0878L46.1716 62.0358L46.2561 62.004L46.3028 61.9635V61.926L46.2824 61.9058L46.2095 61.848L46.192 61.7989L46.1862 61.6891L46.2445 61.5157L46.3086 61.4002L46.3931 61.3106L46.4048 61.2644L46.294 61.0477L46.2882 60.9755L46.3028 60.9379L46.3261 60.9235L46.3523 60.9321L46.3931 60.9755L46.4252 61.065L46.4514 61.0853L46.6 61.091L46.6175 61.117L46.6437 61.2442L46.7108 61.3106L46.702 61.3799L46.6263 61.4753L46.6117 61.5533L46.5796 61.6573L46.568 61.7324L46.6175 61.8104L46.6437 61.8682L46.6321 61.9462L46.5855 62.0415V62.1109L46.6175 62.1629L46.7603 62.2784L46.8506 62.3998L46.9497 62.5876L46.9614 62.6887L46.9235 62.8389L46.9352 62.9082H46.9614L46.9818 62.8822L47.008 62.8129L47.0342 62.7985L47.2003 62.7464L47.2528 62.7147L47.2674 62.6771L47.2586 62.5731L47.2732 62.55L47.3053 62.5355L47.3898 62.5876L47.4276 62.5933L47.4539 62.5876L47.5063 62.5558L47.5704 62.4922L47.7336 62.4084L47.7774 62.368L47.7919 62.3304L47.7657 62.2784L47.7132 62.2466L47.5908 62.2351L47.5326 62.2091L47.3694 61.9895L47.3431 61.9317V61.8624L47.3635 61.7844L47.4014 61.7324L47.585 61.6746L47.7191 61.6111L47.8356 61.6168L47.8677 61.6053L47.9318 61.5013L47.9668 61.4897L47.9988 61.5013L48.0163 61.5215L48.0105 61.5995L48.0251 61.6313L48.1533 61.7151L48.1853 61.7642L48.2116 61.8624L48.2495 61.874L48.264 61.8422L48.2495 61.7411L48.2582 61.6631L48.1475 61.3857L48.1591 61.1864L48.2174 61.0217L48.232 61.0015L48.264 60.9957L48.2815 61.0593L48.2494 61.2442L48.2582 61.2788L48.3077 61.3106L48.3544 61.4262H48.366L48.4826 61.1748L48.4913 61.1286L48.4389 61.0535L48.433 60.9899L48.4563 60.8339L48.4971 60.7848L48.5496 60.7588H48.5875L48.841 60.8281L48.9051 60.8917L49.0071 61.0853L49.08 61.1748H49.112L49.1383 61.0535L49.1499 61.0275L49.1762 61.0072L49.2723 61.0853L49.2985 61.0795L49.3189 61.0477V60.9697L49.351 60.9119L49.3568 60.8801L49.2985 60.7328L49.3976 60.5652L49.4239 60.3659L49.4559 60.3081L49.488 60.3139L49.5404 60.3861L49.59 60.4959L49.5783 60.571L49.5259 60.649V60.6808L49.5841 60.7443L49.6162 60.8339L49.5783 61.0217H49.5841L49.7532 60.9061L50.1233 60.6114L50.2573 60.5334L50.3302 60.4814L50.4322 60.3139L50.5487 60.1723L50.7382 59.8141L50.9188 59.557L51.0208 59.4472L51.2219 59.2623L51.3268 59.1467L51.4492 59.0629L51.6824 58.8202L51.9534 58.5805L52.0204 58.4591L52.0845 58.2078L52.1107 58.1442L52.1544 58.1009L52.239 58.0604L52.2768 58.0171L52.3701 57.8495L52.4517 57.656L52.5042 57.5751L52.5887 57.4826L52.7315 57.2717L52.9442 57.055L52.9762 57.003L53.1278 56.6881C53.1278 56.6881 53.1317 56.6387 53.1453 56.5841C53.1633 56.5127 53.1861 56.431 53.1861 56.431V56.3934L53.1598 56.3414L53.0287 56.2837L52.9646 56.2201L52.9529 56.1623L52.9646 56.1219L52.985 56.1103L53.0608 56.1161L53.2881 56.2461L53.3347 56.2519L53.3726 56.1161L53.4309 56.0583L53.6698 55.8907L53.696 55.8214L53.7864 55.4429L53.8651 55.2956V55.2176L53.7922 55.1223L53.7806 54.9085L53.7427 54.8651L53.6436 54.8189L53.6057 54.7756L53.5737 54.686L53.6174 54.6022L53.7019 54.5184L53.8388 54.2931L53.8826 54.2555L53.9496 54.2353L53.9875 54.2411L54.0778 54.2873L54.1157 54.2931H54.1623L54.2789 54.2613L54.5499 54.1255L54.6927 54.0186L54.751 53.984L54.8151 53.9782L54.8879 53.9984H54.9258L55.0949 53.8684L55.2901 53.7789L55.5349 53.7037L55.666 53.6835L55.9225 53.6893L56.0798 53.646L56.1964 53.594L56.3246 53.5795H56.4091L56.4878 53.5997L56.7472 53.7037L56.9075 53.7413L57.0619 53.7471L57.3417 53.7991L57.4058 53.7933L57.5428 53.7211L57.6448 53.6575L57.7963 53.6142L57.8866 53.5737L57.9245 53.5304L57.9624 53.3744L58.0032 53.331L58.1052 53.2675L58.2101 53.1577L58.3267 52.9006L58.3966 52.7966L58.4374 52.6897L58.4112 52.6319L58.3908 52.6117L58.2859 52.5741L58.146 52.4903L58.1052 52.4441L58.079 52.3546L58.0615 52.1119L58.009 52.0021L58.0294 51.9761L58.0673 51.9819L58.1314 52.0454L58.1577 52.1032L58.1956 52.2968L58.2218 52.3488L58.3442 52.4066L58.4549 52.5077L58.4957 52.5163L58.5278 52.5077L58.5657 52.4644L58.5861 52.3921V52.317L58.5715 52.2592L58.5773 52.2188L58.7026 52.1812L58.7784 52.135L58.9037 52.0454L58.9358 51.9963L58.9795 51.9068L59.0319 51.719L59.064 51.7334L59.1019 51.7768L59.1164 51.8028V51.8808L59.0115 52.0541L58.793 52.3026L58.7463 52.4441L58.7405 52.6319L58.7143 52.7012L58.6618 52.785L58.554 52.8804L58.5132 52.9381L58.5074 53.0942L58.4549 53.1837L58.417 53.2328L58.3063 53.2848L58.2626 53.3311L58.2276 53.4264L58.2364 53.4986L58.248 53.5217L58.3121 53.5477L58.4608 53.5564L58.6123 53.594L58.7026 53.646L58.7667 53.7095L58.8309 53.7355H58.9037L58.927 53.7153L58.9533 53.6517L58.9795 53.5304L59.0057 53.4582L59.0436 53.4062L59.1164 53.357L59.2971 53.305H59.3758L59.6264 53.3888L59.7576 53.4408L59.9324 53.5419L60.0082 53.5564L60.151 53.5477L60.3083 53.6257L60.3783 53.646H60.4162L60.7018 53.5217L60.9174 53.4062L61.0077 53.331L61.0398 53.227L60.9611 53.0595L60.9407 52.8948L60.9495 52.8168L61.0077 52.5915L60.9815 52.4961L60.9495 52.4123L60.8912 52.343L60.8008 52.265L60.7338 52.161L60.7076 52.0657V51.9645L60.7484 51.8085L60.7746 51.745L60.8242 51.6612L60.897 51.6034L61.1418 51.4878L61.1884 51.4503L61.2088 51.4243L61.3429 51.0978L61.3895 50.9101L61.407 50.7887L61.3953 50.7569L61.3371 50.7252L61.2525 50.7569L61.2001 50.7887L61.1156 50.8263H61.0456L60.9815 50.8003L60.9407 50.7569L60.9174 50.6992L60.9291 50.5431L60.9553 50.4796L61.1418 50.2225L61.1943 50.1387L61.2001 50.1011L61.1943 50.0693L61.1739 50.0491L61.1418 50.0376L61.0777 50.0491L60.9028 50.1733L60.8504 50.1965L60.6901 50.1791L60.6318 50.1473L60.5677 50.0809L60.5153 49.9336L60.5211 49.7862L60.5735 49.6533L60.7076 49.4395L60.728 49.376L60.7222 49.272L60.6843 49.1824L60.5794 49.0813L60.4249 49.0408L60.3929 49.0293L60.3579 48.9773L60.3462 48.9137L60.3987 48.7028L60.4104 48.5468L60.3929 48.4833L60.3142 48.3561L60.2034 48.2926L60.0082 48.2464L59.8683 48.1568L59.7896 48.0672L59.7692 47.9777L59.7838 47.8939L59.8159 47.8303L59.8537 47.7841L59.9383 47.7523L59.9645 47.7725L59.9324 47.995L59.9587 48.0846L60.0024 48.1308L60.0606 48.1568L60.3521 48.2521L60.4686 48.3099L60.5007 48.3619L60.5211 48.4255L60.489 48.7346L60.4949 48.8039L60.5269 48.8617L60.5327 48.8877L60.6056 48.9455L60.7746 49.0177L60.8387 49.0813L60.865 49.1333L60.897 49.2922L60.8824 49.454L60.8183 49.6331L60.728 49.8122L60.7163 49.8902L60.7222 49.9162L60.7659 49.9596L60.8387 49.9856L60.9028 49.9913L61.0456 49.9278L61.1826 49.9076L61.2525 49.9162L61.3691 49.948L61.4332 50.0058L61.442 50.0751L61.407 50.1387L61.1622 50.4102L61.1301 50.52L61.1418 50.5836L61.168 50.6356L61.2409 50.6529L61.3487 50.6471L61.442 50.6154L61.5498 50.6356L61.6226 50.6991L61.6401 50.7887L61.6226 50.9563L61.5323 51.2885L61.4653 51.4619L61.4216 51.5514L61.2671 51.6988L61.1943 51.8028L61.1622 51.9559L61.168 52.2448L61.2088 52.3286L61.2467 52.4499L61.2788 52.5019L61.3837 52.6117L61.3953 52.6377L61.4012 52.8948L61.5323 53.2328L61.7071 53.4784L61.8354 53.5737L61.8995 53.5997L61.9782 53.6142L62.121 53.5997L62.1647 53.6055L62.2317 53.6315L62.3162 53.6835L62.3599 53.7297L62.4065 53.8049L62.4561 54.0938L62.5027 54.14H62.5406L62.561 54.1198L62.663 54.0042L62.7155 53.9666L62.7941 53.9349L62.9224 53.9146L62.9806 53.8886L63.0652 53.7528L63.0914 53.7355L63.1234 53.7211L63.1963 53.7355L63.2458 53.7731L63.4557 53.9984L63.5635 54.0995L63.6218 54.1342L63.7383 54.1515L64.0181 54.1342L64.1784 54.0938L64.3095 54.0244L64.5281 53.8684L64.7758 53.7355L64.8282 53.7153L64.9302 53.646L65.041 53.594L65.1051 53.5795L65.1838 53.5882L65.2683 53.5477L65.6355 53.2906L65.6617 53.279H65.7025L65.7462 53.3253L65.5772 53.542L65.4694 53.6517L65.3848 53.6951L65.2217 53.7297L65.1371 53.7673L65.0147 53.8511L64.7554 53.9522L64.6855 54.0042L64.5485 54.1718L64.464 54.2093L64.3212 54.3133L64.2512 54.4231L64.225 54.582L64.2512 54.634L64.3358 54.686L64.3474 54.712L64.3358 54.7496L64.2891 54.7871L64.0764 54.9027L63.9132 55.0443L63.8054 55.0385L63.6801 55.0183L63.6101 54.9923L63.3624 54.9489L63.2721 54.9027L63.1497 54.7756L63.0535 54.7294L62.937 54.7178L62.8379 54.7351L62.7796 54.7611L62.7096 54.7698L62.6397 54.7496L62.3221 54.608L62.2813 54.5965L62.2113 54.6022L62.1268 54.6398L62.0044 54.6716L61.8354 54.6918L61.6751 54.6658L61.4653 54.5965L61.3837 54.582L61.1506 54.5705L60.9495 54.5387L60.8184 54.5618L60.7426 54.556L60.6901 54.53L60.6318 54.4549L60.4249 54.4087L60.3346 54.3653L60.2035 54.2729L60.0752 54.2151L60.0024 54.2093L59.8683 54.2353L59.6935 54.2411L59.6265 54.2613L59.4516 54.3249L59.2709 54.3307L59.1748 54.3509H59.0261L58.9096 54.3249L58.8047 54.2931L58.7289 54.2353L58.554 54.0302L58.4695 53.9782L58.4491 53.9926L58.6123 54.2498L58.6764 54.3075L58.8775 54.4289L59.064 54.6918L59.1427 54.7814L59.2447 54.8594L59.3875 54.9403L59.4283 54.9865L59.4603 55.0327L59.4982 55.1136L59.5565 55.3332L59.5886 55.3852L59.6148 55.3707L59.6264 55.3332L59.6352 54.9605L59.6527 54.8854L59.711 54.8131L59.7576 54.7871H59.7955L59.9907 54.8016L60.049 54.7756H60.1976L60.3521 54.8449L60.4949 54.8911L60.7863 55.0183L60.9553 55.076L61.2001 55.206L61.2409 55.2118L61.305 55.1974L61.407 55.1338H61.4478L61.474 55.154L61.6168 55.1396L61.6489 55.1483L61.7247 55.2378L61.7654 55.3216L61.815 55.3909L61.9403 55.5267L62.0103 55.6538L62.0306 55.7174L62.0103 55.7492L61.9898 55.7752L61.8354 55.7636L61.7713 55.7839L61.7188 55.807L61.7072 55.8416L61.6926 55.9167L61.6606 55.9803L61.5323 56.0583L61.3954 56.1219L61.1039 56.1797H60.8766L60.6756 56.1537L60.5328 56.1623L60.4745 56.1796L60.3463 56.2634L60.1772 56.3414L60.1073 56.3992L60.0869 56.4628L60.1452 56.535C60.1452 56.535 60.1822 56.5667 60.2035 56.5841C60.2122 56.5913 60.218 56.5986 60.218 56.5986L60.2763 56.6997L60.2996 56.7199L60.4045 56.7575L60.5532 56.7777L60.7542 56.7459L60.8766 56.7575L60.9408 56.7459L60.9612 56.6823L60.9349 56.6303C60.9349 56.6303 60.9211 56.6072 60.9029 56.5841H61.2205C61.2486 56.6018 61.273 56.6159 61.273 56.6159L61.3109 56.6621L61.375 56.7979L61.4332 56.8297L61.5906 56.8615L61.681 56.9048L61.8237 56.951L61.8879 56.9453L61.9782 56.925L62.0248 56.9308L62.0744 56.951L62.1589 57.0348L62.2317 57.1244L62.3017 57.2197L62.36 57.3295L62.3978 57.3671L62.5552 57.4451L62.6718 57.4711L62.8641 57.5548L62.9486 57.5664L63.039 57.5404L63.1497 57.5751L63.208 57.5548L63.3391 57.4768H63.3712L63.3828 57.5028L63.377 57.5404L63.24 57.6646L63.2284 57.7022L63.3129 57.864L63.3245 58.0026L63.3508 58.0922L63.3886 58.1384L63.546 58.1702L63.8491 58.2858L64.3212 58.4331L64.9711 58.5747L65.0876 58.5805L65.1692 58.5487L65.2683 58.4216L65.379 58.3811L65.4548 58.3696L65.5655 58.3118L65.6297 58.306L65.7724 58.2424L65.8366 58.228H65.8686L66.0639 58.2598L66.1484 58.2164L66.2445 58.2078L66.3349 58.1702L66.4777 58.0691L66.6729 58.0286L66.9381 58.0344L67.1392 58.1124H67.1771L67.2674 58.0922L67.314 58.1009L67.3986 58.1442L67.416 58.1702L67.4889 58.1904L67.5588 58.1847L67.6842 58.1066L67.7483 58.0864L67.8182 58.0806L68.0397 58.0922L68.2087 58.0749L68.2903 58.0286L68.3311 57.9766L68.3486 57.9131L68.3369 57.812L68.2728 57.7137L68.2845 57.6906L68.3049 57.6762L68.5584 57.7542L68.7828 57.9593L68.8615 57.9766L68.9256 57.9651L69.048 57.8871L69.2636 57.7282L69.3656 57.6646L69.3802 57.6386L69.3715 57.4971L69.3919 57.4248L69.4706 57.3757L69.5143 57.2919L69.5463 57.1822L69.5871 57.1359L69.6134 57.1446V57.2139L69.5813 57.2717L69.5609 57.4335L69.6134 57.682L69.6192 57.7542L69.593 57.8235L69.523 57.9189L69.5143 57.9449L69.523 57.9766L69.5405 58.0026L69.5726 57.9911L69.7416 57.8697L69.794 57.8437L69.8319 57.838H69.864L69.9485 57.8957L70.1758 57.9911L70.2137 58.0286L70.2224 58.0604L70.2078 58.1384L70.1641 58.1904L70.065 58.254L70.033 58.306L70.0592 58.3175L70.1292 58.3378L70.1641 58.3233L70.2457 58.1846L70.2982 58.1586L70.5838 58.2424L70.6421 58.3175L70.6625 58.4475L70.7849 58.5429L70.8694 58.6642L70.9277 58.696H71.0034L71.1287 58.6122L71.1987 58.6064L71.3939 58.7162L71.426 58.7278L71.458 58.722L71.4784 58.6902L71.4639 58.6642L71.3531 58.4909V58.4533L71.3881 58.3898L71.426 58.3436L71.4784 58.3118L71.7116 58.332L71.7349 58.3176L71.7436 58.2858L71.6854 58.2222L71.5804 58.1847L71.528 58.1442L71.5163 58.0864L71.5426 58.0171L71.6067 57.9535L71.6912 57.9189L71.7116 57.8958L71.7495 57.7975L71.8281 57.7542L71.8515 57.734L71.8923 57.6328L71.9185 57.6184L71.9564 57.6242L72.0409 57.6704L72.0788 57.7224L72.1691 57.9449L72.274 58.0922L72.3381 58.228V58.3002L72.3323 58.3378L72.2595 58.3898L72.2216 58.4389L72.2157 58.4793L72.2216 58.696L72.274 58.8058L72.344 58.8578L72.3644 58.8838V58.9214L72.344 58.9474L72.2478 59.0167L72.2157 59.0745L72.3381 59.2421L72.3644 59.3403L72.3527 59.3778L72.2361 59.5252L72.2099 59.5945L72.2157 59.6205L72.2361 59.6465L72.3061 59.6407L72.4168 59.4876L72.4693 59.4616H72.545L72.7257 59.5136L73.0113 59.5512L73.1016 59.6032L73.1687 59.661L73.2007 59.7101L73.2066 59.7448L73.192 59.7765L73.1687 59.7939L72.953 59.8083L72.8306 59.8921L72.8044 59.9037L72.7257 59.8979L72.6616 59.9181L72.6499 59.9412L72.6441 60.0192L72.682 60.1348L72.7024 60.2706L72.6937 60.3457L72.65 60.3919L72.5596 60.4121L72.4926 60.3919L72.443 60.3601L72.3381 60.2446L72.2799 60.2128L72.242 60.207L72.1516 60.2301L71.8981 60.3457L71.8515 60.3977L71.8281 60.5132L71.7874 60.5652L71.7291 60.5855L71.6708 60.6028L71.5222 60.6115L71.4959 60.597L71.3939 60.5277L71.3211 60.5132L71.2774 60.545L71.2453 60.6115L71.2191 60.6288H71.0763L70.9073 60.701L70.7324 60.9235L70.6421 61.0217L70.5517 61.091L70.2545 61.2962L69.8523 61.5013L69.762 61.5331H69.7212L69.6571 61.5013L69.6046 61.432L69.5551 61.4002L69.4502 61.354L69.3977 61.3222L69.3802 61.2644L69.3657 61.1951L69.322 61.1546L69.2812 61.2008L69.2549 61.2788L69.2637 61.3106L69.3015 61.3944L69.3977 61.4637L69.4385 61.5157V61.5475L69.4239 61.5793L69.185 61.6573L68.8294 61.874L68.3836 62.0791L67.9231 62.3189L67.8328 62.3507L67.5851 62.5154L67.3928 62.7031L67.1771 62.8765L67.0809 62.9921V63.0556L67.1596 63.1452L67.1713 63.177L67.1771 63.2087L67.1247 63.3012L67.0751 63.333H67.0431L66.874 63.3012L66.775 63.2607L66.6584 63.255L66.6088 63.2925L66.4835 63.5179L66.3874 63.6016L66.2271 63.671L65.9677 63.7172L65.8832 63.7634L65.7521 63.8848L65.449 64.0754L65.3004 64.1794L65.2159 64.2632L64.9711 64.6417L64.904 64.8526L64.9244 64.9104L65.0148 65.0317L65.041 65.0895L65.0352 65.2397L65.0468 65.3033L65.0789 65.3553L65.0993 65.3726L65.2683 65.4044C65.2683 65.4044 65.284 65.4111 65.3004 65.4188C65.3263 65.4315 65.3587 65.4449 65.3587 65.4449L65.4811 65.546L65.5539 65.5604L65.7987 65.546L65.8366 65.5518L65.9532 65.6095L65.994 65.624L66.0639 65.6182L66.1164 65.5922L66.2009 65.4506L66.2387 65.4044L66.3087 65.3466L66.3874 65.3033L66.4515 65.2397L66.5302 65.1935L66.6351 65.182L66.9119 65.2051L67.1247 65.1473L67.3141 65.1415L67.4685 65.1617L67.8765 65.2715L68.0572 65.3929L68.0834 65.4189C68.1109 65.4419 68.1504 65.4709 68.1504 65.4709L68.4069 65.6182L68.777 65.9129L69.1063 66.2596L69.1588 66.2971L69.3132 66.4763L69.4968 66.638L69.5667 66.664L69.7562 66.6756L69.8203 66.7016L69.9223 66.7796L70.0126 66.8952L70.0651 66.9327L70.1816 66.9587L70.2457 66.9472L70.3186 66.8952L70.4148 66.7652L70.4789 66.7536L70.5896 66.7652L70.6479 66.7392L70.7703 66.6496L70.8752 66.638L70.9451 66.6438L71.0238 66.664L71.1666 66.7536L71.5047 67.0281L71.6387 67.0801L71.7553 67.1379L71.9505 67.2996L71.9826 67.343L72.0467 67.4008L72.1196 67.499L72.1574 67.5828L72.2274 67.8948L72.2361 68.1144L72.2478 68.2097L72.2594 68.2357L72.2944 68.2761L72.3585 68.3715L72.4489 68.5968L72.5392 69.0446V69.1544L72.4693 69.4115V69.5213L72.4343 69.6369L72.4168 69.6687L72.3643 69.6947L72.1953 69.7178L72.1429 69.7438L72.105 69.79L72.0263 69.9373L71.9942 70.0991L71.9039 70.336V70.3736L71.9564 70.5151C71.9564 70.5151 71.9589 70.528 71.9622 70.5527C71.9711 70.6201 71.9884 70.7463 71.9884 70.7463L72.0788 70.9456L72.1196 71.093V71.171L72.0613 71.3559L71.936 71.5436L71.9097 71.6505L71.9301 71.7083L71.968 71.7545L71.9942 71.7748L72.1429 71.7863L72.1837 71.7979L72.2682 71.8499L72.2798 71.8817L72.2361 71.9221L72.1312 71.9481L71.9564 71.9539L71.8281 71.9799L71.7495 71.9654L71.5629 72.0174L71.4114 72.0117L71.3677 72.0954L71.2628 72.107L71.1987 72.2168L71.1462 72.2486H71.1142L71.0821 72.2023L71.0384 72.1648L70.9539 72.159L70.9393 72.2226L70.9451 72.2486L71.0384 72.3699L71.1666 72.5057L71.4376 72.7108L71.5425 72.8206L71.6271 72.8697L71.7873 72.9362L72.0263 73.0633L72.0992 73.0835H72.1254L72.3177 72.9939L72.3906 72.9997L72.4926 73.0777L72.6237 73.2742L72.7024 73.3666L72.7082 73.3984L72.6936 73.5053L72.7024 73.54L72.7403 73.5833L72.8189 73.6209L73.0579 73.6729L73.1541 73.7509L73.2269 73.8404L73.3027 73.8924L73.3814 73.9098L73.5766 73.8982L73.8214 73.9444L73.9118 73.9098L74.0662 73.8289L74.1653 73.8144L74.276 73.8289L74.5412 73.9242L74.7394 73.9675L74.9347 73.9444L75.1736 73.8202L75.3368 73.7826L75.3805 73.7509L75.4388 73.6729L75.6865 73.5717L75.7827 73.5515L76.0362 73.436L76.1061 73.3839L76.1644 73.3088L76.348 72.9535L76.4063 72.8899L76.5549 72.8379L76.7356 72.8264L76.7939 72.8061L76.8522 72.6906L76.9425 72.4103L76.9804 72.3583L77.0708 72.3526L77.266 72.3901H77.3039L77.3826 72.3439L77.403 72.3179L77.4292 72.2543L77.4409 72.133L77.4729 72.029L77.5837 71.8239L77.7119 71.4396L77.8955 71.1767L78.012 70.882L78.082 70.7722L78.1403 70.7L78.1869 70.6625L78.3035 70.6191C78.3035 70.6191 78.3426 70.5824 78.3792 70.5527C78.4118 70.5262 78.4433 70.5036 78.4433 70.5036L78.5949 70.4053L78.6707 70.362L78.7552 70.3476L78.9941 70.2782L79.1107 70.232L79.3963 70.1627L79.5187 70.0847L79.6556 69.9113L79.8305 69.7957L79.915 69.7582L80.1103 69.7177L80.2764 69.7004L80.4075 69.712L80.5416 69.764H80.5736L80.6319 69.738L80.7048 69.6426L80.763 69.6224L80.8009 69.6369L80.8738 69.6946L80.9379 69.7178H81.0078L81.0807 69.6629L81.1244 69.5704L81.1768 69.5011L81.2293 69.4693L81.4479 69.4173L81.6052 69.4231L81.6956 69.4693L81.9404 69.7322L81.9928 69.8102L82.0395 69.8478L82.156 69.868H82.1881L82.2464 69.842L82.3367 69.764L82.395 69.6484L82.4387 69.5011L82.4911 69.1919L82.5232 69.085L82.5961 68.9348L82.6981 68.8193L82.8146 68.7297L82.9312 68.6921L83.0623 68.6604L83.1468 68.6228L83.1643 68.5968L83.2314 68.3339L83.2751 68.2414L83.3537 68.1981L83.4237 68.1923L83.5781 68.2299H83.6131L83.7355 68.1403L83.7996 68.1663L83.9949 68.3252L84.0328 68.3339L84.0531 68.3137L84.0706 68.2819L84.059 68.2183L83.9803 68.0883L83.9686 68.0565L83.9745 67.993L84.0007 67.9294L84.0444 67.8832L84.1231 67.837L84.4087 67.8196L84.4524 67.7792L84.467 67.7474L84.4611 67.7156L84.4087 67.6781L84.2659 67.6319L84.2018 67.5741L84.196 67.5105L84.2018 67.4267L84.2193 67.3516L84.2601 67.2534L84.33 67.1523L84.3941 67.0858L84.7642 66.8229L84.9391 66.6698L85.0294 66.638L85.1343 66.6351L85.1984 66.6149L85.4112 66.6091L85.7434 66.6611L85.9561 66.7305L86.163 66.8403L86.332 66.898L86.4224 66.95L86.6351 67.0887L86.7575 67.1465L86.9906 67.4614L87.0956 67.6752L87.148 67.7127L87.2646 67.733L87.6085 67.6347L87.7891 67.5394L87.8736 67.5452L87.964 67.5914L88.0485 67.603L88.1447 67.5972L88.1913 67.5596L88.2292 67.5019L88.2554 67.4354L88.2816 67.3198L88.3312 67.2389L88.3778 67.1927L88.4623 67.1609H88.8178L88.8499 67.1725L88.9723 67.2707L89.0714 67.3083L89.3628 67.3458H89.4327L89.6659 67.3978H89.7038L89.7387 67.3921L89.7824 67.3545L89.8203 67.3025L89.8553 67.1985L89.899 67.1089L89.9719 67.0512L90.068 67.0309L90.2691 67.0252L90.3857 67.0309L90.6188 67.0078L90.8636 66.8403L91.0588 66.7507L91.1288 66.6987L91.155 66.6351L91.1492 66.5629L91.0122 66.4156L90.8782 66.2249L90.7791 66.0313L90.7674 65.8638L90.7791 65.5228C90.7791 65.5228 90.7841 65.4739 90.7936 65.4217C90.8027 65.3712 90.8111 65.3177 90.8111 65.3177L90.8519 65.2166L90.8782 65.101L90.8578 64.971V64.8959L90.8694 64.8179L90.9102 64.7717L90.9423 64.7601L91.1958 64.6966L91.2716 64.6504L91.2861 64.6244L91.2774 64.5608L91.1696 64.4134L91.155 64.3094L91.1696 64.2719L91.2016 64.2141L91.2541 64.1765L91.3124 64.1621L91.4523 64.1505H91.5251L91.5688 64.1621L91.7262 64.2257L91.802 64.2401L91.9768 64.2257L92.0934 64.1881L92.1342 64.1448L92.1604 64.0725L92.1342 63.7663L92.0176 63.593L91.9768 63.5092L91.9127 63.4109L91.8602 63.3734H91.7524L91.5455 63.5467L91.4727 63.5583L91.4348 63.5467L91.3765 63.515L91.2454 63.3618C91.1547 63.2206 91.0274 63.2315 90.8461 63.3214C90.6648 63.4113 90.5871 63.3994 90.3799 63.2838C90.1726 63.1683 90.1718 63.2334 90.0098 63.3474C89.8475 63.4615 89.9797 63.1752 89.9777 63.1423C89.9755 63.1094 89.7957 63.1166 89.6921 63.1423C89.5885 63.1679 89.1733 63.272 88.9402 63.2463C88.7071 63.2206 88.721 63.3487 88.5527 63.4514C88.3843 63.5541 88.372 63.6825 88.372 63.6825L88.2671 63.983L88.2088 64.1043L88.1243 64.2026L88.0398 64.2343L87.9757 64.2459L87.7425 64.2343L87.5356 64.1621L87.4657 64.0985L87.2238 63.9772L87.0373 63.8559L86.9673 63.7663L86.9411 63.7085L86.909 63.6161V63.5467L86.9207 63.5207L87.011 63.4947L87.0373 63.4687L87.0489 63.4427L87.0314 63.385L86.9265 63.3156L86.842 63.3041H86.7721L86.7196 63.3416L86.6759 63.4312L86.6351 63.7085L86.5652 63.9194L86.4923 64.0205L86.4282 64.0928L86.3583 64.1448L86.3116 64.1881L86.3058 64.2257L86.3116 64.2921L86.3058 64.3239L86.2359 64.3817L86.1688 64.5406L86.1514 64.5666L86.0727 64.6186L85.9619 64.6706L85.4782 64.8121L85.076 65.0173L84.8604 65.0808L84.77 65.101L84.6943 65.1068L84.5835 65.075L84.4932 65.0288L84.3446 64.9133L84.2455 64.7977L84.1231 64.7659L83.9482 64.6706L83.5723 64.3932L83.4645 64.2834L83.1847 63.8992L83.0215 63.7201L82.8554 63.5092L82.6864 63.2578L82.5057 63.0267L82.4154 62.8649L82.3105 62.7176L82.1298 62.5182L81.8967 62.212L81.7801 62.0762L81.6431 61.8769L81.5411 61.6515L81.4828 61.5822L81.4158 61.4464L81.3313 61.3251L81.2497 61.2413L81.1973 61.1662L81.0486 60.8426L80.9058 60.6144L80.8417 60.4786L80.7106 60.0857L80.594 59.843L80.4512 59.6552L80.3434 59.4385L80.3084 59.349L80.2647 59.0543L80.2181 58.8665L80.0316 58.436L79.9733 58.1153L79.9267 57.5578L79.8422 57.3266L79.8247 57.2371V57.0897L79.8684 56.9915L79.9209 56.9164L80.017 56.8384L80.1103 56.8066L80.1802 56.7604L80.2647 56.6708L80.3026 56.4339L80.3172 56.4021L80.3347 56.3761L80.3609 56.3703H80.3871L80.4337 56.4223L80.4775 56.6015L80.5037 56.6188L80.5416 56.6275L80.6144 56.6188L80.8272 56.5032L81.1973 56.3964L81.2497 56.3646L81.3838 56.2606L81.5907 56.0352L81.748 55.8937L81.8326 55.7521L81.9229 55.5094L81.987 55.3996L82.0977 55.2899C82.0977 55.2899 82.1706 55.1853 82.2056 55.1367H82.6544C82.6564 55.162 82.6544 55.183 82.6544 55.183V55.3303L82.6806 55.4199L82.7301 55.4574L82.8554 55.4834L82.9399 55.5297H82.9778L83.0041 55.5094L83.0886 55.3736L83.1527 55.3101L83.1964 55.3303L83.1906 55.4054L83.1323 55.5874L83.1061 55.6452L83.0419 55.7146L82.8729 55.8301L82.8554 55.8619L82.8409 55.8937L82.835 56.0815L82.7301 56.1912L82.7068 56.2346L82.6077 56.4599L82.4649 56.6708L82.3688 56.9019L82.3367 56.954L82.2726 57.0175L82.1998 57.0695L82.0832 57.1215L81.8122 57.2053L81.4362 57.3469L81.3401 57.422V57.4624L81.4042 57.526L81.3576 57.5693L81.2089 57.6155L81.1565 57.6531L81.1244 57.7571L80.9962 57.8409L80.9583 57.8842L80.9496 57.9564L80.97 57.9796L81.0224 58.02L81.0982 58.0258L81.1507 58.0056L81.2993 57.9044L81.3401 57.8987L81.4421 57.8409L81.649 57.7166L81.818 57.6473L81.9229 57.5895L82.1153 57.448L82.2056 57.3584L82.3688 57.1273L82.4854 56.8702L82.7127 56.4224L82.8234 56.2346L82.9312 56.0757L83.3217 55.3361L83.4237 55.1743C83.4237 55.1743 83.4396 55.1572 83.4558 55.1367C83.4781 55.109 83.5082 55.0789 83.5082 55.0789L83.6452 54.9634L83.7939 54.8103L83.8842 54.6803L83.9804 54.5012L84.0794 54.3798L84.1814 54.322L84.3621 54.2758L84.4787 54.2267L84.7206 54.0909L84.7585 54.0533L84.9129 53.9551L84.9537 53.906L85.0703 53.8136L85.2568 53.5131L85.3617 53.3918L85.4957 53.1722L85.6589 52.9873L85.7493 52.9093L85.86 52.8573L85.9095 52.7822L86.0523 52.6666L86.2214 52.5886L86.6089 52.3575L86.708 52.3373H86.8158L87.084 52.2881L87.2909 52.2679L87.4337 52.2101L87.5619 52.1321L87.6202 52.1148L87.6901 52.1206L87.8795 52.2101L87.964 52.2217L88.034 52.2159L88.1243 52.1899L88.3254 52.0946L88.3895 52.0888L88.4682 52.0946L88.5585 52.1379L88.5789 52.1581L88.6576 52.2881L88.7596 52.395L88.7654 52.4673L88.7538 52.5828L88.7742 52.6406L88.8121 52.6522L88.8237 52.6261L88.8499 52.5048L88.8907 52.4528L88.9141 52.447L88.9548 52.4615L88.9607 52.4846L88.9665 52.5626L88.949 52.6406L88.9723 52.6464L89.0073 52.5828L89.019 52.3892L89.0976 52.2419L89.1822 52.1061L89.322 51.9414L89.4211 51.7854L89.5639 51.6265L89.8145 51.459L89.9573 51.4012L90.138 51.3434L90.2691 51.2654L90.3857 51.1701L90.4702 51.1325H90.7616L90.8636 51.1181L90.9103 51.0805L90.9685 50.9592L91.0385 50.9072L91.1551 50.9129L91.26 50.9447L91.5572 50.8869H91.6271L91.8282 50.9332L91.9011 50.9505L92.0176 51.0545L92.1138 51.1701L92.2187 51.2481L92.2828 51.3434L92.3032 51.4012L92.3149 51.4647L92.2887 51.6641L92.2566 51.7739L92.1925 51.8894L92.1721 51.9588V52.0368L92.14 52.1003L92.1138 52.1148L92.0759 52.1061L91.9652 52.057L92.0176 52.1321L92.0701 52.1639L92.0934 52.1841L92.1663 52.1726L92.2245 52.1003L92.3848 51.5485L92.4315 51.4214L92.4752 51.1903L92.5422 51.0169L92.6267 50.8292L92.6384 50.754L92.5742 50.65V50.6183L92.5859 50.5865L92.6121 50.572L92.6908 50.5807L92.7812 50.546L92.819 50.4969L92.8598 50.3987L92.9094 50.3149L92.956 50.2716L93.0842 50.1936L93.2008 50.156L93.3261 50.0144L93.3961 49.9624L93.5068 49.9104L93.6496 49.8035L93.9993 49.6158L94.2499 49.5146L94.3606 49.4569L94.4568 49.3846L94.5938 49.2633L94.6987 49.2055L94.8735 49.142L94.9755 49.1362L95.0396 49.1593L95.2495 49.3153L95.4476 49.3904L95.468 49.4164L95.4738 49.4829L95.4155 49.6158V49.6562L95.4359 49.6793L95.468 49.688L95.4942 49.6678L95.637 49.4569L95.876 48.9166L95.908 48.8646L96.0188 48.749L96.2315 48.3388L96.4122 48.0759L96.5492 47.9083L96.6919 47.6454L96.7881 47.5674L96.8406 47.5443L96.9134 47.5356L97.0999 47.5443H97.1378L97.3913 47.6194L97.7148 47.6079L97.9858 47.6339L98.1607 47.5674L98.3559 47.4778L98.5628 47.3565L98.7115 47.3045L98.9446 47.2785L99.2244 47.3623L99.2564 47.3565L99.3788 47.2669H99.4313L99.6324 47.345L99.7868 47.371L99.8975 47.3189L99.9821 47.2207L100.035 47.2034H100.072L100.253 47.3305L100.46 47.4403L100.492 47.4923L100.48 47.5761L100.46 47.6396L100.375 47.735L100.364 47.7667L100.349 47.8448L100.384 47.8505L100.434 47.8187L100.533 47.7032L100.617 47.5501L100.714 47.4287L100.9 47.1312L100.985 47.0416L101.011 47.0243C101.009 47.0133 100.932 46.5126 100.932 46.2587C100.932 46.0019 101.116 45.8237 101.349 45.6953C101.582 45.5669 101.424 45.3354 101.398 45.2071C101.372 45.0787 101.193 45.1814 100.883 45.2071C100.572 45.2327 101.088 44.4093 101.165 44.1526C101.243 43.8958 101.116 43.0277 101.116 42.7658C101.116 42.6375 101.062 42.4593 101.425 42.4336C101.605 42.4208 101.684 42.3832 101.71 42.2805C101.736 42.1778 101.763 42.1501 101.996 42.1245C102.229 42.0988 103.135 41.7649 103.161 41.6622C103.187 41.5595 103.212 41.5091 103.316 41.5091C103.42 41.5091 103.705 41.407 103.835 41.33C103.887 41.2989 103.933 41.104 103.977 40.8677C104.042 40.5195 104.1 40.0808 104.146 39.9432C104.224 39.7121 104.301 39.6855 104.534 39.6341C104.767 39.5828 105.102 39.4816 105.335 39.533C105.569 39.5843 106.786 39.4803 106.967 39.429C107.149 39.3776 106.995 39.3269 107.332 39.481C107.668 39.635 107.928 39.6097 108.057 39.507C108.187 39.4043 108.367 39.3269 108.885 39.2499C109.403 39.1728 109.429 39.3015 109.844 39.2759C110.258 39.2502 110.205 39.0945 110.179 38.9147C110.153 38.735 110.179 38.4271 110.205 38.2474C110.231 38.0676 110.052 37.8612 109.922 37.7071C109.793 37.553 110.128 37.4776 110.257 37.3749C110.387 37.2722 110.309 37.1944 110.257 36.8606C110.255 36.8441 110.252 36.8249 110.252 36.8057H35.8034L35.8029 36.8059ZM8.5495 38.6641C8.53377 38.6863 8.51452 38.7093 8.49122 38.7334C8.51568 38.7096 8.53359 38.6866 8.5495 38.6641ZM75.5813 56.3368L75.6862 56.3801L75.7707 56.4321L75.8815 56.5419L76.0942 56.799L76.1263 56.8423L76.2749 57.2468L76.307 57.2988L76.476 57.3941L76.5459 57.9719L76.5809 58.0182L76.6392 57.9922L76.6771 57.8968L76.6625 57.2872L76.5139 57.2468L76.4876 57.2295L76.4556 57.1775L76.4701 57.1312L76.6129 56.9261H76.677L76.7878 57.0677L77.0326 57.137L77.0646 57.1572L77.1113 57.1948L77.1637 57.2988L77.2074 57.345L77.4784 57.4461L77.6271 57.5559L77.6679 57.5675L77.9185 57.4028L77.9768 57.1775L78.0817 57.1052L78.1283 57.1457L78.2245 57.2988L78.2828 57.3681L78.309 57.4259L78.2828 57.5299L78.1662 58.0297L77.901 57.7928L77.7903 57.9979L77.7582 57.9922L77.7436 57.9286L77.7961 57.7986V57.7293L77.764 57.709H77.7378L77.6795 57.735L77.6154 57.8506L77.4668 58.0037L77.4551 58.2233L77.6475 58.4862L77.662 58.5122L77.6475 58.5642L77.3968 58.466L77.254 58.6798L77.2395 58.7173L77.254 58.8213L77.3386 58.8704L77.6038 58.8329L77.6795 58.8531L77.7057 58.8964L77.7203 58.9687L77.6737 59.1102L77.6679 59.1853L77.732 59.2489L77.7903 59.2316L77.8107 59.2113L77.8689 59.0322L77.9068 58.9744L77.9593 58.9542L78.2245 58.986L78.3527 58.9542L78.3935 58.9109L78.4518 58.7809L78.6966 58.1597L78.7111 58.1279L78.6907 57.9142L78.6325 57.7726L78.6121 57.7148L78.5946 57.3624L78.6121 57.3046L79.0842 57.1572L79.294 57.2612L79.6233 57.5415L79.6757 57.7235L79.7136 57.9546L79.6932 57.9777L79.667 57.9922L79.5912 57.9864L79.5388 57.9546L79.3639 57.7813L79.2736 57.8073L79.0521 57.9141L78.9239 57.9401L78.8976 57.9979L78.9297 58.0557L79.0929 58.1193L79.1628 58.3648L79.4164 58.5902L79.4805 58.6855L79.5446 58.6797L79.5854 58.6277L79.6029 58.4746L79.6175 58.44L79.6437 58.4226H79.667L79.6932 58.44L79.8302 58.6797L79.8768 58.7866L79.9264 59.2951L79.9468 59.3904L80.0429 59.506L80.0837 59.8989L80.1012 60.0347L79.9788 60.4189L79.9992 60.4825L80.0517 60.5143H80.0837L80.1158 60.5114L80.244 60.3843L80.3169 60.1705L80.3606 60.1329L80.4393 60.1358L80.5675 60.2312L80.6782 60.4392L80.7423 60.6876L80.891 60.9823L81.0746 61.2221L81.3456 61.7999L81.5641 61.9964L81.6108 62.1119L81.8556 62.4528L82.0566 62.71L82.1295 62.814L82.4967 63.2444L82.6132 63.3773L82.9134 63.7558L83.2748 64.3018L83.4875 64.4434L83.6449 64.7005L83.6944 64.738L83.811 64.764L83.8459 64.79L83.9683 64.9576L84.0208 64.9952L84.0528 65.0096H84.1956L84.2393 65.053L84.3355 65.0905L84.42 65.1483L84.4404 65.2003L83.9742 65.4459L83.9159 65.4141L83.8692 65.3736L83.7876 65.2465L83.4175 65.1165L83.2369 65.027L83.0037 64.9692L82.9046 64.9316L82.5229 64.7525L82.1994 64.8218L82.1469 64.7583L81.7798 64.5012L81.7477 64.4491L81.739 64.348L81.7011 64.2642L81.5 64.0765L81.4825 64.0505L81.4884 63.9869L81.5321 63.9349L81.8905 63.7702L81.9867 63.6489L82.0129 63.5449L81.7856 62.7937L81.5641 62.395L81.5583 62.369L81.5146 62.3257L81.2406 62.1524L81.2144 62.1004L81.0745 61.7912L81.0075 61.7739H80.9696L80.684 61.8317L80.6083 61.7797L80.3285 61.5341L80.2061 61.5168L80.1915 61.485L80.2323 61.433L80.4189 61.1961L80.4014 61.1701L80.3343 61.1816L79.9409 61.407L79.7136 61.3174L79.565 61.303L79.4222 61.3608L79.3901 61.3492L79.396 61.3116L79.4164 61.2799L79.5767 61.0979L79.6029 60.6241L79.5854 60.5663L79.294 60.6356L79.0346 60.7916L78.9676 60.8032L78.9443 60.7916L78.9763 60.6501L79.0404 60.5865L79.0667 60.5201L79.0987 60.2571L79.2095 60.1936L79.5388 60.13L79.565 60.1502L79.5912 60.1242L79.6087 60.0462L79.5912 59.8411L79.5067 59.7458L79.4222 59.8989L79.3581 59.9567L78.8277 60.1878L78.7607 60.2514L78.6062 60.4969L78.3527 60.7512L78.2099 60.7656L78.0875 60.9072L77.9068 60.9563L77.764 61.0141H77.7261L77.7116 60.9823L77.7378 60.9245L77.8281 60.8552L78.003 60.7338L78.0292 60.5547L78.0875 60.4825L78.2361 60.3294L78.2507 60.2976L78.2624 60.1156L78.309 60.078L78.5217 60.0202L78.6004 59.9682L78.8131 59.4366L78.7927 59.3731L78.7753 59.3529L78.5946 59.2633L78.2361 59.1477H78.1982L78.1662 59.1535L78.172 59.1853L78.3935 59.4684L78.411 59.532L78.3789 59.5898L78.3614 59.6158L78.3265 59.6215L78.2186 59.5898H78.1778L78.1283 59.6158L78.0817 59.7053L77.9913 59.9422L77.9593 59.9942L77.9068 60.026L77.8369 60.0087L77.764 59.9104L77.7057 59.8036L77.6999 59.6735L77.7436 59.4944L77.6679 59.4886L77.4988 59.5638L77.4726 59.584L77.4406 59.6418L77.4085 59.8036V59.8787L77.4406 60.1098L77.4289 60.1878L77.3706 60.1936L77.3298 60.0405L77.3502 59.9191L77.3386 59.8845H77.3123L77.2861 59.9047L77.222 60.0202L77.1958 60.0347L77.1754 60.0202L77.1958 59.8989L77.187 59.8613L77.1754 59.8353L77.0792 59.9567L77.0267 59.9885L77.0063 59.9625L77.0122 59.9307L77.1287 59.6158L77.2861 59.5638L77.3123 59.5002L77.356 59.4164L77.2803 59.2489L77.0588 59.1535L76.9801 59.0958V59.0582L77.0326 59.0322L77.1287 59.0178V58.986L76.9889 58.7635L76.9218 58.6971L76.8519 58.6855L76.8198 58.6913L76.7994 58.7115L76.7732 58.7809L76.747 58.9369L76.6974 58.9744L76.5809 58.9542L76.4497 58.8646L76.4701 58.57L76.4497 58.5064L76.3973 58.492L76.3798 58.5237L76.3273 58.6595L76.2224 58.8704L76.068 58.9022L76.0476 58.8849V58.8069L76.1059 58.7375L76.1204 58.6971L76.1146 58.6595L76.0738 58.622L75.7183 58.5757L75.6483 58.5815L75.6075 58.5757L75.3482 58.4746L75.3569 58.5122L75.3686 58.5324L75.4647 58.6133L75.5376 58.7115L75.8348 58.8646L75.8873 58.9022L75.931 58.9802L75.9835 59.3066L75.9776 59.3789L75.9631 59.4164L75.8931 59.4684L75.6542 59.532L75.5959 59.5262L75.5493 59.48L75.3802 59.1998L75.389 59.1593L75.421 59.1535L75.5492 59.2113L75.6134 59.1998L75.7241 59.0004L75.7066 58.9744L75.5755 58.8906L75.1617 58.5497L74.9548 58.3764L74.8178 58.2088L74.7537 58.1453L74.2991 58.0817L74.2291 58.1337L74.2175 58.1713L74.2233 58.2348L74.2612 58.281L74.334 58.3013H74.4827L74.5643 58.3186L74.5847 58.3388L74.5643 58.4082L74.436 58.5642L74.5409 58.6711L74.573 58.7231L74.5643 58.7635L74.4943 58.8271L74.436 58.8444L74.3661 58.8328L74.2932 58.7751L74.2612 58.7231L74.2029 58.5902L74.1708 58.5382L74.0339 58.5324L73.9261 58.6797L73.859 58.6855L73.8153 58.7288H73.7891L73.7687 58.7057L73.7891 58.6335V58.6017L73.7687 58.5237L73.8794 58.4226L73.8736 58.3446L73.8678 58.3128L73.7104 58.177L73.5764 58.0181L73.5676 57.9777L73.5822 57.9459L73.658 57.7726L73.5997 57.5559L73.5501 57.5183L73.4394 57.4923L73.3287 57.4143L73.3024 57.4345L73.2966 57.8708L73.2383 57.9401H73.1684L73.0751 57.8246L72.8099 57.683L72.6496 57.2988L72.6351 57.267L72.571 57.0301L72.6351 57.0474L72.7254 57.0936H72.7662L72.8624 56.8741L72.8828 56.8481L73.0052 56.825L73.0693 56.7527L73.0955 56.747L73.1596 56.7672L73.3082 56.9203L73.6084 56.9896L73.6929 56.9521L73.7512 56.8827L73.7745 56.8683L73.8153 56.8827L73.8998 56.9723L73.9494 56.9983L74.0281 57.0099L74.2933 57.0214L74.3515 57.0561L74.3982 57.0994L74.436 57.1774L74.5643 57.4605L74.7391 57.6252L74.8178 57.761L74.8499 57.7668L74.8761 57.7494L74.9664 57.5674L75.0305 57.5761L75.1092 57.7408L75.1413 57.7928L75.1675 57.813H75.2054L75.491 57.787L75.252 57.4085L75.1879 57.3825L75.1034 57.241H75.1354L75.2316 57.2785H75.2724L75.3103 57.241H75.5755L75.5697 57.5992H75.6017L75.829 57.3623V57.1947L75.7503 57.1716L75.7241 57.1572L75.5114 56.8683L75.4968 56.8047L75.523 56.354L75.5493 56.3425L75.5813 56.3396V56.3367V56.3368Z" fill="white"/>
</g>
<defs>
<clipPath id="clip0_871_187">
<rect width="110.655" height="73.7698" fill="white" transform="translate(0.492188 0.207001)"/>
</clipPath>
</defs>
</svg>
