<svg width="131" height="30" viewBox="0 0 131 30" fill="none" xmlns="http://www.w3.org/2000/svg">
<path d="M65.1544 29.0821C64.2641 28.9188 63.4176 28.6713 62.5538 28.4143C62.5476 27.5093 62.6274 26.5687 62.8003 25.7101C70.5614 27.9442 72.3595 26.4814 72.4918 21.5316V20.3424L71.4898 21.2559C70.1859 22.4443 68.9095 22.8691 67.0075 22.7473C63.229 22.5055 61.1364 19.75 61.1302 15.0081C61.1266 12.1726 61.7548 10.3712 63.3357 8.68556C65.4446 6.43707 69.0535 6.00463 71.5768 7.69819L72.4918 8.31238V7.66924V7.02616L74.1172 7.07982L75.7426 7.13353L75.7964 13.5251C75.8801 23.4903 75.5877 25.436 73.7216 27.3325C71.2197 29.4385 68.663 29.4315 65.1544 29.0824L65.1544 29.0821ZM70.0718 19.2707C70.5036 19.051 71.2248 18.533 71.6744 18.1197L72.4918 17.3681V14.2587V11.1493L71.9098 10.6608C69.9181 8.98936 67.777 8.86226 66.1597 10.3194C65.111 11.2644 64.6489 12.6286 64.6348 14.8216C64.6178 17.4705 65.1899 18.812 66.6221 19.4823C67.571 19.9264 68.9493 19.8418 70.0718 19.2707ZM23.0649 21.369C21.1663 19.5628 20.2726 16.7334 20.6528 13.7322C20.9617 11.2944 21.7071 9.70478 23.1736 8.35653C24.3371 7.28698 25.4301 6.83741 27.1533 6.71958C31.3502 6.4327 33.8386 9.28805 33.8508 14.4048L33.8544 15.7479C30.6506 15.8333 26.9874 15.5465 24.0092 15.9922C24.4447 18.7439 26.439 20.801 29.2104 20.8417C30.8757 20.8417 32.0737 20.4203 33.6747 20.1055L33.7234 22.6396C33.7234 22.6396 29.9843 23.525 28.5603 23.5144C26.3748 23.5232 24.3 22.5336 23.0651 21.369H23.0649ZM30.5094 12.6448C30.5059 11.0671 29.4772 9.5853 28.2217 9.35034C26.2398 8.9796 24.7212 10.1253 24.2233 12.3669L24.0484 13.1542H27.2794H30.5104L30.5095 12.6448H30.5094ZM47.3992 21.369C45.5006 19.5628 44.6069 16.7334 44.9872 13.7322C45.296 11.2944 46.0415 9.70478 47.508 8.35653C48.6715 7.28698 49.7645 6.83741 51.4877 6.71958C55.6846 6.4327 58.1729 9.28805 58.1852 14.4048L58.1888 15.7479C54.7696 15.7039 51.4941 15.718 48.2574 15.6916C48.4503 18.9409 50.5554 21.0101 53.5448 20.8419C55.2256 20.8744 56.7011 20.4178 58.0091 20.1057C58.2999 20.2849 58.229 22.3391 57.9233 22.5921C57.5012 22.9414 54.3186 23.5253 52.8946 23.5146C50.7092 23.5234 48.6343 22.5336 47.3995 21.369H47.3992ZM54.8438 12.6448C54.8402 11.0671 53.8115 9.5853 52.556 9.35034C50.5742 8.9796 49.0556 10.1253 48.5576 12.3669L48.3827 13.1542H51.6138H54.8448L54.8439 12.6448H54.8438ZM93.8072 23.2759C91.4827 22.4111 90.338 19.9176 91.1004 17.3796C91.4052 16.3651 92.5695 15.1171 93.7477 14.5421C94.8622 13.9983 97.1165 13.5409 98.7302 13.5311L99.7983 13.5224V12.2164C99.7357 8.68814 96.94 8.91762 94.1814 9.91651C93.4395 10.1828 92.4707 10.4029 92.2919 10.4581C92.2689 9.63035 92.1823 9.06185 92.1823 7.79536L93.7148 7.3118C94.7361 6.98954 95.8682 6.79297 97.1086 6.72248C100.088 6.55317 101.698 7.20477 102.639 8.96045C103.026 9.68214 103.054 10.0137 103.142 14.9436C103.235 20.1538 103.236 20.1637 103.685 20.6405C103.955 20.9267 104.941 21.2043 105.244 21.2043C105.235 22.2918 105.361 22.2474 105.23 23.2675C104.796 23.384 103.355 23.5287 102.817 23.4842C101.765 23.3971 101.112 22.9569 100.61 21.9948L100.343 21.4819L99.6527 22.0327C98.0603 23.3039 95.4043 23.8676 93.8076 23.2736L93.8072 23.2759ZM97.71 20.488C98.1197 20.3439 98.7562 20.0313 99.1243 19.7933L99.7937 19.3607V17.4617V15.5627H98.9969C97.123 15.5627 94.8912 16.5217 94.4335 17.5234C93.9293 18.6271 94.3515 19.9384 95.3723 20.4403C96.1322 20.8138 96.7443 20.8262 97.7055 20.4878L97.71 20.488ZM8.40516 13.5248V3.89105H4.59711H0.789062V2.5942V1.29746H10.1699H19.5507V2.5942V3.89105H15.7426H11.9346V13.5248V23.1586H10.1699H8.40516V13.5248ZM37.9408 11.5795V0.000610352H39.6126H41.2844V11.5795V23.1586H39.6126H37.9408V11.5795ZM80.4795 15.0995V7.02616C81.5631 7.06224 82.6898 7.01207 83.7733 7.04727C83.7627 7.71387 83.8024 8.3779 83.8412 9.04274C85.3652 7.37268 86.9817 6.9429 88.3351 6.79902L89.5816 6.67011V8.25813V9.84631C87.4915 9.23427 85.313 10.6121 84.317 11.9501C83.9345 12.4803 83.9117 12.7493 83.8231 17.786L83.7302 23.066C82.6466 23.1021 81.563 23.1373 80.4794 23.1733V15.0999L80.4795 15.0995ZM108.157 15.0995V7.04061C109.272 7.04061 110.387 7.04061 111.501 7.04061C111.501 7.7784 111.501 9.06619 111.501 9.80398C112.911 8.22289 114.618 6.73441 116.517 6.76266C118.838 6.67175 119.789 8.16828 120.825 9.82901C123.728 6.56923 129.022 5.63231 130.658 9.50959C130.816 14.8047 130.724 16.7696 130.641 23.1522C129.563 23.1883 128.572 23.138 127.494 23.1732C127.544 19.0543 127.484 14.3979 127.383 10.5302C126.97 9.71964 126.203 9.08272 124.881 9.43128C123.558 9.77994 122.362 10.8061 121.117 12.2552C121.117 15.8468 121.16 19.5675 121.16 23.1592H119.496H117.831C117.795 18.9496 117.759 14.7399 117.724 10.5303C117.056 9.76005 116.523 9.30907 115.262 9.6088C114.001 9.90844 112.326 10.9026 111.501 12.4803C111.501 16.0399 111.458 19.5996 111.458 23.1592C110.343 23.1592 109.272 23.1592 108.157 23.1592C108.157 20.4726 108.157 17.7859 108.157 15.0993L108.157 15.0995Z" fill="white"/>
</svg>
