<svg width="138" height="31" viewBox="0 0 138 31" fill="none" xmlns="http://www.w3.org/2000/svg">
<path fill-rule="evenodd" clip-rule="evenodd" d="M39.2116 1.20878C41.0948 1.7106 42.5749 3.18379 43.079 5.05844C43.99 8.45286 43.9936 15.5392 43.9936 15.5392C43.9936 15.5392 43.9936 22.6257 43.079 26.0201C42.5749 27.8947 41.0948 29.3679 39.2116 29.8697C35.8017 30.7801 22.1217 30.7801 22.1217 30.7801C22.1217 30.7801 8.44202 30.7801 5.03197 29.8697C3.14872 29.3679 1.66875 27.8947 1.16463 26.0201C0.25 22.6257 0.25 15.5392 0.25 15.5392C0.25 15.5392 0.25 8.45286 1.16463 5.05844C1.66875 3.18379 3.14872 1.7106 5.03197 1.20878C8.44202 0.29834 22.1217 0.29834 22.1217 0.29834C22.1217 0.29834 35.8017 0.29834 39.2116 1.20878ZM29.1066 15.5397L17.7422 22.0705V9.00891L29.1066 15.5397Z" fill="white"/>
<path d="M53.2241 20.1168L48.3125 2.45996H52.5976L54.3189 10.4639C54.7581 12.4354 55.0786 14.1164 55.2874 15.5072H55.4134C55.5575 14.5107 55.8816 12.8404 56.3822 10.4926L58.1645 2.45996H62.4496L57.4767 20.1168V28.5867H53.2206V20.1168H53.2241Z" fill="white"/>
<path d="M63.7382 28.0272C62.8741 27.4465 62.2583 26.5432 61.891 25.3173C61.5273 24.0915 61.3438 22.4642 61.3438 20.4282V17.6574C61.3438 15.6035 61.5526 13.9512 61.9703 12.7074C62.388 11.4636 63.0397 10.5532 63.9255 9.98326C64.8114 9.41334 65.9744 9.12659 67.4149 9.12659C68.8336 9.12659 69.9678 9.41693 70.8248 9.9976C71.6782 10.5783 72.3047 11.4887 72.7008 12.7217C73.0969 13.9584 73.295 15.6035 73.295 17.6574V20.4282C73.295 22.4642 73.1006 24.0987 72.7154 25.3317C72.33 26.5683 71.7035 27.4716 70.8392 28.0415C69.975 28.6115 68.8011 28.8982 67.3212 28.8982C65.7943 28.9017 64.6025 28.6078 63.7382 28.0272ZM68.5851 25.0378C68.8227 24.4142 68.9452 23.3997 68.9452 21.9875V16.041C68.9452 14.6717 68.8264 13.668 68.5851 13.0372C68.3438 12.4027 67.9226 12.0873 67.3175 12.0873C66.7343 12.0873 66.3201 12.4027 66.0825 13.0372C65.8412 13.6716 65.7224 14.6717 65.7224 16.041V21.9875C65.7224 23.3997 65.8375 24.4177 66.0681 25.0378C66.2985 25.6615 66.7125 25.9733 67.3175 25.9733C67.9226 25.9733 68.3438 25.6615 68.5851 25.0378Z" fill="white"/>
<path d="M87.2383 28.5905H83.8607L83.4862 26.2535H83.3927C82.4743 28.017 81.0988 28.8987 79.2624 28.8987C77.9913 28.8987 77.0515 28.4829 76.4465 27.655C75.8416 26.8233 75.5391 25.5259 75.5391 23.7623V9.49992H79.8566V23.5113C79.8566 24.3645 79.9502 24.9702 80.1374 25.3323C80.3247 25.6943 80.6379 25.877 81.0772 25.877C81.4517 25.877 81.8118 25.7624 82.1575 25.533C82.5033 25.3035 82.7553 25.0132 82.9245 24.662V9.49634H87.2383V28.5905Z" fill="white"/>
<path d="M98.9659 5.91838H94.6808V28.5897H90.457V5.91838H86.1719V2.46301H98.9659V5.91838Z" fill="white"/>
<path d="M109.371 28.5905H105.994L105.619 26.2535H105.525C104.607 28.017 103.232 28.8987 101.395 28.8987C100.124 28.8987 99.1843 28.4829 98.5794 27.655C97.9744 26.8233 97.6719 25.5259 97.6719 23.7623V9.49992H101.989V23.5113C101.989 24.3645 102.083 24.9702 102.27 25.3323C102.457 25.6943 102.771 25.877 103.21 25.877C103.585 25.877 103.945 25.7624 104.29 25.533C104.636 25.3035 104.888 25.0132 105.057 24.662V9.49634H109.371V28.5905Z" fill="white"/>
<path d="M123.661 12.5499C123.399 11.3456 122.977 10.4745 122.394 9.9333C121.811 9.39206 121.008 9.12323 119.985 9.12323C119.193 9.12323 118.451 9.34546 117.763 9.79351C117.075 10.2416 116.542 10.8258 116.168 11.5535H116.136V1.49561H111.977V28.5865H115.541L115.981 26.78H116.074C116.409 27.4252 116.91 27.9306 117.576 28.307C118.242 28.6798 118.984 28.8662 119.798 28.8662C121.256 28.8662 122.333 28.1959 123.021 26.8588C123.708 25.5183 124.054 23.4286 124.054 20.5826V17.561C124.054 15.4282 123.921 13.7543 123.661 12.5499ZM119.704 20.3388C119.704 21.7295 119.646 22.8192 119.531 23.6078C119.416 24.3964 119.225 24.9592 118.951 25.2889C118.681 25.6222 118.314 25.7871 117.857 25.7871C117.5 25.7871 117.173 25.7046 116.87 25.5362C116.568 25.3713 116.323 25.1205 116.136 24.7906V13.955C116.28 13.4353 116.532 13.0123 116.888 12.679C117.241 12.3456 117.63 12.1807 118.044 12.1807C118.483 12.1807 118.822 12.3528 119.06 12.6933C119.301 13.0374 119.466 13.6109 119.56 14.421C119.654 15.2311 119.7 16.3816 119.7 17.8763V20.3388H119.704Z" fill="white"/>
<path d="M130.181 21.4392C130.181 22.665 130.217 23.5827 130.289 24.1956C130.361 24.8085 130.512 25.2531 130.743 25.5362C130.973 25.8158 131.326 25.9555 131.805 25.9555C132.45 25.9555 132.896 25.7046 133.134 25.2064C133.375 24.7082 133.505 23.8767 133.526 22.7153L137.25 22.9338C137.271 23.0988 137.282 23.3281 137.282 23.6185C137.282 25.382 136.796 26.7011 135.827 27.5721C134.859 28.4431 133.487 28.8804 131.715 28.8804C129.587 28.8804 128.096 28.2173 127.243 26.8875C126.386 25.5577 125.961 23.5039 125.961 20.7222V17.3888C125.961 14.5249 126.404 12.4316 127.29 11.1125C128.176 9.79345 129.691 9.13391 131.841 9.13391C133.321 9.13391 134.459 9.40275 135.251 9.944C136.043 10.4852 136.601 11.324 136.926 12.4674C137.25 13.6108 137.412 15.188 137.412 17.2024V20.4714H130.181V21.4392ZM130.728 12.4423C130.509 12.7111 130.365 13.152 130.289 13.765C130.217 14.3779 130.181 15.3063 130.181 16.5537V17.9229H133.339V16.5537C133.339 15.3278 133.296 14.3994 133.213 13.765C133.13 13.1305 132.979 12.6861 132.759 12.4244C132.54 12.1663 132.201 12.0337 131.744 12.0337C131.283 12.0373 130.945 12.1735 130.728 12.4423Z" fill="white"/>
</svg>
